<?xml version="1.0" encoding="UTF-8"?> <!-- Generator: Adobe Illustrator 24.1.1, SVG Export Plug-In . SVG Version: 6.00 Build 0) --> <svg xmlns="http://www.w3.org/2000/svg" xmlns:xlink="http://www.w3.org/1999/xlink" id="Слой_1" x="0px" y="0px" viewBox="0 0 531.06 395.46" style="enable-background:new 0 0 531.06 395.46;" xml:space="preserve"> <style type="text/css"> .st0{fill:#2FCC71;} .st1{fill:#FFFFFF;} .st2{fill:none;stroke:#5CB680;stroke-width:0.25;stroke-miterlimit:10;} .st3{display:none;} .st4{display:inline;fill:#D5E7CB;stroke:#53B271;stroke-width:0.5;stroke-miterlimit:10;} .st5{fill:none;stroke:#000000;stroke-width:0.75;stroke-miterlimit:10;} .st6{fill:none;stroke:#53B271;stroke-width:0.5;stroke-miterlimit:10;} .st7{opacity:0.97;} .st8{opacity:0.96;fill:none;stroke:#53B271;stroke-width:0.5;stroke-miterlimit:10;} .st9{fill:#53B271;} .st10{fill:#EAF2E1;} .st11{fill:#E8E8E8;} .st12{fill:#5CB680;} .st13{fill:#96CB9E;} .st14{fill:#506C93;} .st15{fill:#52A780;} .st16{opacity:0.38;fill:#D4EBF3;} .st17{fill:#C2C2C2;} .st18{fill:#E3E3E3;} .st19{fill:none;stroke:#506C93;stroke-miterlimit:10;} .st20{display:inline;fill:#EAF2E1;stroke:#007379;stroke-miterlimit:10;} .st21{display:inline;} .st22{fill:#EAF2E1;stroke:#007379;stroke-miterlimit:10;} .st23{fill:#EAF2E1;stroke:#007379;stroke-width:2;stroke-miterlimit:10;} .st24{fill:#5CB680;stroke:#007379;stroke-width:2;stroke-miterlimit:10;} .st25{fill:#96CB9E;stroke:#007379;stroke-width:2;stroke-miterlimit:10;} .st26{fill:#FFFFFF;stroke:#506C93;stroke-width:2;stroke-miterlimit:10;} .st27{fill:none;stroke:#007379;stroke-width:2;stroke-miterlimit:10;} .st28{fill:#E3E3E3;stroke:#007379;stroke-width:2;stroke-miterlimit:10;} .st29{fill:#C2C2C2;stroke:#007379;stroke-width:2;stroke-miterlimit:10;} .st30{fill:none;stroke:#007379;stroke-width:2;stroke-linecap:round;stroke-miterlimit:10;} .st31{fill:#007379;} .st32{fill:#52A780;stroke:#007379;stroke-width:2;stroke-linecap:round;stroke-miterlimit:10;} .st33{fill:none;stroke:#FFFFFF;stroke-width:2;stroke-linecap:round;stroke-miterlimit:10;} .st34{fill:#D4EBF3;stroke:#FFFFFF;stroke-width:2;stroke-linecap:round;stroke-miterlimit:10;} .st35{fill:#5CB680;stroke:#007379;stroke-width:2;stroke-linecap:round;stroke-miterlimit:10;} .st36{fill:none;stroke:#007379;stroke-width:1.5;stroke-miterlimit:10;} .st37{fill:#BFBFBF;} .st38{fill:#EAF2E1;stroke:#00954F;stroke-width:2;stroke-miterlimit:10;} .st39{fill:#5CB680;stroke:#00954F;stroke-width:2;stroke-miterlimit:10;} .st40{fill:#96CB9E;stroke:#00954F;stroke-width:2;stroke-miterlimit:10;} .st41{fill:#FFFFFF;stroke:#00954F;stroke-width:2;stroke-miterlimit:10;} .st42{fill:#E3E3E3;stroke:#00954F;stroke-width:2;stroke-miterlimit:10;} .st43{fill:#C2C2C2;stroke:#00954F;stroke-width:2;stroke-miterlimit:10;} .st44{fill:none;stroke:#00954F;stroke-width:2;stroke-linecap:round;stroke-miterlimit:10;} .st45{fill:#00954F;} .st46{fill:#52A780;stroke:#00954F;stroke-width:2;stroke-linecap:round;stroke-miterlimit:10;} .st47{fill:#5CB680;stroke:#00954F;stroke-width:2;stroke-linecap:round;stroke-miterlimit:10;} .st48{fill:none;stroke:#00954F;stroke-width:1.5;stroke-miterlimit:10;} </style> <path class="st0" d="M403.97,259.13l-258.85,44.62c-13.01,2.24-25.64-5.62-29.36-18.29L62.14,103.01 C56.75,84.68,72.31,66.99,91.18,70l356.14,56.77c17.68,2.82,27.29,22.24,18.8,38l-43.66,81.07 C418.66,252.87,411.85,257.78,403.97,259.13z"></path> <g> <polygon class="st38" points="160.82,251.81 192.69,219.93 211.44,238.67 223.16,250.4 234.97,238.59 254.47,219.09 302.74,170.82 347.34,126.22 375.57,97.99 382.29,104.71 394.13,70.94 360.36,82.78 367.09,89.5 343.46,113.13 292.98,163.61 246.42,210.17 223.16,233.43 192.69,202.96 152.36,243.29 "></polygon> </g> <polygon class="st39" points="307.4,246.11 370.31,176.6 216.05,176.6 278.95,246.11 282,275.73 303.22,286.71 "></polygon> <circle class="st40" cx="149.12" cy="254.95" r="12.19"></circle> <circle class="st40" cx="192.7" cy="211.37" r="12.19"></circle> <circle class="st40" cx="223.17" cy="241.84" r="12.19"></circle> <g> <path class="st41" d="M206.76,111.81v8.95v0.53v11.9h-3.13v-10.92h-2.18v10.92h-3.13v-11.9v-0.53v-8.95v-0.01v10.14h-2.78v-9.3 c0-2.16,1.65-3.91,3.75-4.12h6.5c2.1,0.21,3.75,1.96,3.75,4.12v9.06h-2.78v-9.87V111.81z"></path> <circle class="st41" cx="202.53" cy="102.9" r="4.39"></circle> </g> <g> <path class="st41" d="M182.02,111.81v8.95v0.53v11.9h-3.13v-10.92h-2.18v10.92h-3.13v-11.9v-0.53v-8.95v-0.01v10.14h-2.78v-9.3 c0-2.16,1.65-3.91,3.75-4.12h6.5c2.1,0.21,3.75,1.96,3.75,4.12v9.06h-2.78v-9.87V111.81z"></path> <circle class="st41" cx="177.8" cy="102.9" r="4.39"></circle> </g> <g> <path class="st41" d="M157.29,111.81v8.95v0.53v11.9h-3.13v-10.92h-2.18v10.92h-3.13v-11.9v-0.53v-8.95v-0.01v10.14h-2.78v-9.3 c0-2.16,1.65-3.91,3.75-4.12h6.5c2.1,0.21,3.75,1.96,3.75,4.12v9.06h-2.78v-9.87V111.81z"></path> <circle class="st41" cx="153.07" cy="102.9" r="4.39"></circle> </g> <path class="st44" d="M337.66,146.06c0.09,0.51,0.17,1.03,0.24,1.54"></path> <path class="st15" d="M279.64,246.11c39.85-20.04,67.89-46.51,88.4-68.55l0,0l-61.34,68.55H279.64z"></path> <path class="st45" d="M379.99,324.52h-70.81c-9.93,0-18-8.07-18-18v-13.09h4v13.09c0,7.72,6.28,14,14,14h70.81V324.52z"></path> <path class="st45" d="M149.47,138.78h70.81c9.93,0,18,8.07,18,18v13.09h-4v-13.09c0-7.72-6.28-14-14-14h-70.81V138.78z"></path> <polyline class="st46" points="278.95,246.11 282,275.73 303.22,286.71 307.4,246.11 300.85,246.11 "></polyline> <line class="st33" x1="287.79" y1="271.01" x2="288.04" y2="273"></line> <line class="st33" x1="286.51" y1="260.91" x2="287.33" y2="267.4"></line> <polyline class="st33" points="230.81,182.92 284.65,246.11 286.03,257.1 "></polyline> <line class="st47" x1="289.59" y1="246.11" x2="289.59" y2="246.11"></line> <line class="st47" x1="296.21" y1="246.11" x2="294.15" y2="246.11"></line> <g> <path class="st42" d="M354.89,156.95c0.23-1.84,0.36-3.7,0.36-5.6c0-2.88-0.28-5.7-0.8-8.43l10.93-6.04l-3.82-10.38l-12.24,2.48 c-2.28-3.99-5.14-7.6-8.48-10.71l5.23-11.34l-9.23-6.1l-8.39,9.25c-3.45-1.54-7.13-2.66-10.97-3.3l-1.9-12.34h-11.06l-1.9,12.34 c-4.71,0.78-9.16,2.28-13.26,4.4l-8.89-8.76l-8.87,6.61l5.86,11.04c-3.23,3.37-5.95,7.23-8.03,11.46l-12.36-1.7l-3.16,10.6 l11.29,5.34c-0.23,1.84-0.36,3.7-0.36,5.6c0,2.88,0.28,5.7,0.8,8.43l-10.93,6.04l3.82,10.38l12.24-2.48 c0.5,0.87,1.02,1.72,1.57,2.55l75.35,0.09c1.1-1.65,2.09-3.37,2.97-5.17l12.36,1.7l3.16-10.6L354.89,156.95z M310.04,171.11 c-11.03,0-19.98-8.95-19.98-19.98c0-11.03,8.95-19.98,19.98-19.98c11.03,0,19.98,8.95,19.98,19.98 C330.02,162.17,321.08,171.11,310.04,171.11z"></path> <path class="st43" d="M310.04,119.34c-17.68,0-32.01,14.33-32.01,32.01c0,10.13,4.71,19.16,12.05,25.03l39.72,0.15 c7.46-5.86,12.25-14.96,12.25-25.18C342.05,133.68,327.72,119.34,310.04,119.34z M309.82,170.3c-10.59,0-19.17-8.58-19.17-19.17 c0-10.59,8.58-19.17,19.17-19.17s19.17,8.58,19.17,19.17C328.99,161.72,320.41,170.3,309.82,170.3z"></path> <path class="st44" d="M336.6,160.29c-1.44,4.22-3.85,7.99-6.97,11.05"></path> <path class="st44" d="M338.1,151.68c-0.03,1.81-0.24,3.58-0.6,5.29"></path> <polygon class="st37" points="353.36,142.39 352.62,139.34 363.68,135.18 364.13,136.45 "></polygon> <polygon class="st37" points="339.64,118.51 337.51,116.7 343.87,106.64 344.81,107.27 "></polygon> <polygon class="st37" points="350.1,170.1 351.13,168.07 362.74,170.49 362.3,171.77 "></polygon> </g> <g> <ellipse class="st17" cx="326.55" cy="300.92" rx="11.76" ry="12.68"></ellipse> <g> <ellipse class="st48" cx="325.07" cy="300.92" rx="10.51" ry="12.68"></ellipse> <path class="st48" d="M325.31,313.6h2.48c5.81,0,10.51-5.68,10.51-12.68c0-6.59-4.17-12-9.5-12.62l-3.5-0.06"></path> </g> <g> <g> <path class="st45" d="M325.19,299.81v-3.95c0.67,0.14,1.31,0.49,1.85,1.01c0.11,0.09,0.24,0.14,0.37,0.15 c0.42,0,0.76-0.42,0.77-0.95c0-0.23-0.07-0.44-0.2-0.61c-0.78-0.84-1.77-1.34-2.8-1.41v-1.32c0-0.38-0.24-0.68-0.55-0.68 c-0.01,0-0.01,0-0.02,0c-0.31-0.01-0.56,0.3-0.56,0.68v1.28c-2.01,0.18-3.38,1.74-3.38,3.81c0,2.54,1.73,3.25,3.38,3.81v4.48 c-0.87-0.15-1.7-0.6-2.37-1.31c-0.13-0.13-0.28-0.2-0.45-0.2c-0.41,0.04-0.73,0.47-0.72,0.99c0,0.23,0.07,0.44,0.2,0.61 c0.92,1.04,2.11,1.64,3.35,1.69v1.23c0,0.01,0,0.02,0,0.02c0.01,0.38,0.27,0.68,0.58,0.66c0.3,0,0.55-0.31,0.55-0.68v-1.26 c2.44-0.2,3.43-2.06,3.43-4.04C328.62,301.18,326.85,300.37,325.19,299.81z M324.07,299.45c-0.98-0.36-1.74-0.73-1.74-1.77 c0-1.04,0.69-1.79,1.74-1.89V299.45z M325.19,306.13v-4.08c1.01,0.36,1.8,0.84,1.79,2.02 C326.98,304.92,326.52,305.93,325.19,306.13z"></path> </g> </g> </g> <g> <ellipse class="st17" cx="358.94" cy="300.92" rx="11.76" ry="12.68"></ellipse> <g> <ellipse class="st48" cx="357.45" cy="300.92" rx="10.51" ry="12.68"></ellipse> <path class="st48" d="M357.69,313.6h2.48c5.81,0,10.51-5.68,10.51-12.68c0-6.59-4.17-12-9.5-12.62l-3.5-0.06"></path> </g> <g> <g> <path class="st45" d="M357.58,299.81v-3.95c0.67,0.14,1.31,0.49,1.85,1.01c0.11,0.09,0.24,0.14,0.37,0.15 c0.42,0,0.76-0.42,0.77-0.95c0-0.23-0.07-0.44-0.2-0.61c-0.78-0.84-1.77-1.34-2.8-1.41v-1.32c0-0.38-0.24-0.68-0.55-0.68 c-0.01,0-0.01,0-0.02,0c-0.31-0.01-0.56,0.3-0.56,0.68v1.28c-2.01,0.18-3.38,1.74-3.38,3.81c0,2.54,1.73,3.25,3.38,3.81v4.48 c-0.87-0.15-1.7-0.6-2.37-1.31c-0.13-0.13-0.28-0.2-0.45-0.2c-0.41,0.04-0.73,0.47-0.72,0.99c0,0.23,0.07,0.44,0.2,0.61 c0.92,1.04,2.11,1.64,3.35,1.69v1.23c0,0.01,0,0.02,0,0.02c0.01,0.38,0.27,0.68,0.58,0.66c0.3,0,0.55-0.31,0.55-0.68v-1.26 c2.44-0.2,3.43-2.06,3.43-4.04C361.01,301.18,359.23,300.37,357.58,299.81z M356.45,299.45c-0.98-0.36-1.74-0.73-1.74-1.77 c0-1.04,0.69-1.79,1.74-1.89V299.45z M357.58,306.13v-4.08c1.01,0.36,1.8,0.84,1.79,2.02 C359.37,304.92,358.9,305.93,357.58,306.13z"></path> </g> </g> </g> <g> <ellipse class="st17" cx="391.99" cy="300.92" rx="11.76" ry="12.68"></ellipse> <g> <ellipse class="st48" cx="390.51" cy="300.92" rx="10.51" ry="12.68"></ellipse> <path class="st48" d="M390.75,313.6h2.48c5.81,0,10.51-5.68,10.51-12.68c0-6.59-4.17-12-9.5-12.62l-3.5-0.06"></path> </g> <g> <g> <path class="st45" d="M390.63,299.81v-3.95c0.67,0.14,1.31,0.49,1.85,1.01c0.11,0.09,0.24,0.14,0.37,0.15 c0.42,0,0.76-0.42,0.77-0.95c0-0.23-0.07-0.44-0.2-0.61c-0.78-0.84-1.77-1.34-2.8-1.41v-1.32c0-0.38-0.24-0.68-0.55-0.68 c-0.01,0-0.01,0-0.02,0c-0.31-0.01-0.56,0.3-0.56,0.68v1.28c-2.01,0.18-3.38,1.74-3.38,3.81c0,2.54,1.73,3.25,3.38,3.81v4.48 c-0.87-0.15-1.7-0.6-2.37-1.31c-0.13-0.13-0.28-0.2-0.45-0.2c-0.41,0.04-0.73,0.47-0.72,0.99c0,0.23,0.07,0.44,0.2,0.61 c0.92,1.04,2.11,1.64,3.35,1.69v1.23c0,0.01,0,0.02,0,0.02c0.01,0.38,0.27,0.68,0.58,0.66c0.3,0,0.55-0.31,0.55-0.68v-1.26 c2.44-0.2,3.43-2.06,3.43-4.04C394.06,301.18,392.29,300.37,390.63,299.81z M389.5,299.45c-0.98-0.36-1.74-0.73-1.74-1.77 c0-1.04,0.69-1.79,1.74-1.89V299.45z M390.63,306.13v-4.08c1.01,0.36,1.8,0.84,1.79,2.02 C392.42,304.92,391.95,305.93,390.63,306.13z"></path> </g> </g> </g> </svg> 