<?xml version="1.0" encoding="UTF-8"?>
<svg width="24px" height="24px" viewBox="0 0 24 24" version="1.1" xmlns="http://www.w3.org/2000/svg" xmlns:xlink="http://www.w3.org/1999/xlink">
    <!-- Generator: Sketch 53.2 (72643) - https://sketchapp.com -->
    <title>ic_announcements</title>
    <desc>Created with Sketch.</desc>
    <g id="web-assets" stroke="none" stroke-width="1" fill="none" fill-rule="evenodd">
        <g id="megaphone-(4)-copy" transform="translate(2.000000, 2.000000)" fill="#FFFFFF" fill-rule="nonzero">
            <path d="M17.4054027,8.30382813 L9.45322566,0.502382813 C8.98423009,0.0434765625 8.22556195,0.04890625 7.76269912,0.501796875 C7.29720796,0.959570313 7.29720796,1.70285156 7.76269912,2.16003906 L15.716031,9.9609375 C16.1819602,10.4179688 16.9394336,10.4179688 17.4054027,9.9609375 C17.8726062,9.50265625 17.8726062,8.76203125 17.4054027,8.30382813 Z" id="Path"></path>
            <path d="M7.17272124,3.23847656 L7.11286726,3.53277344 C6.69126106,5.60144531 5.66661504,7.56671875 4.28073451,9.15957031 L8.60738496,13.4035937 C10.2310487,12.0444531 12.2069867,11.0123828 14.3160133,10.5983203 L14.6165973,10.5396094 L7.17272124,3.23847656 Z" id="Path"></path>
            <path d="M3.4875,10.0386328 L0.530522124,12.9385547 C-0.168172566,13.6239063 -0.171079646,14.7365625 0.530522124,15.4247656 L2.21989381,17.081875 C2.9185885,17.7672266 4.05290708,17.7700391 4.75450885,17.081875 L7.71120796,14.1816406 L3.4875,10.0386328 Z M3.90986283,14.59625 C3.67653982,14.8251172 3.2985,14.8251172 3.06517699,14.59625 C2.83185398,14.3673828 2.83185398,13.9965625 3.06517699,13.7676953 L3.90986283,12.9391406 C4.14318584,12.7102734 4.52122566,12.7102734 4.75454867,12.9391406 C4.98787168,13.1680078 4.98787168,13.5388281 4.75454867,13.7676953 L3.90986283,14.59625 Z" id="Shape"></path>
            <path d="M10.2052832,17.3936719 L11.0178717,16.5966016 C11.7195133,15.9084766 11.7172035,14.7958203 11.0179115,14.1110156 L10.414354,13.5185547 C10.0807566,13.7383594 9.76217257,13.9771875 9.4524292,14.2320313 L10.1732257,14.9401172 C10.4059912,15.1672656 10.4076239,15.5369531 10.1732257,15.7680859 L9.34721681,16.5783203 L8.13333186,15.4246875 L6.44388053,17.081875 L9.15411504,19.6579297 C9.61661947,20.1127734 10.3760044,20.1153516 10.8428894,19.6573438 C11.3089779,19.2001563 11.3089779,18.456875 10.8428894,17.9996484 L10.2052832,17.3936719 Z" id="Path"></path>
            <path d="M12.6184779,0 C12.2883053,0 12.0211327,0.262070313 12.0211327,0.5859375 L12.0211327,1.7578125 C12.0211327,2.08167969 12.2883053,2.34375 12.6184779,2.34375 C12.9486504,2.34375 13.215823,2.08167969 13.215823,1.7578125 L13.215823,0.5859375 C13.215823,0.262070313 12.9486504,0 12.6184779,0 Z" id="Path"></path>
            <path d="M17.3972389,4.6875 L16.2025487,4.6875 C15.8723761,4.6875 15.6052035,4.94957031 15.6052035,5.2734375 C15.6052035,5.59730469 15.8723761,5.859375 16.2025487,5.859375 L17.3972389,5.859375 C17.7274115,5.859375 17.9945841,5.59730469 17.9945841,5.2734375 C17.9945841,4.94957031 17.7274115,4.6875 17.3972389,4.6875 Z" id="Path"></path>
            <path d="M16.6248717,1.34351562 C16.3915487,1.11464844 16.0135088,1.11464844 15.7801858,1.34351562 L14.5854956,2.51539063 C14.3521726,2.74425781 14.3521726,3.11507813 14.5854956,3.34394531 C14.8188186,3.5728125 15.1968584,3.57285156 15.4301814,3.34394531 L16.6248717,2.17207031 C16.8581947,1.94320313 16.8581947,1.57238281 16.6248717,1.34351562 Z" id="Path"></path>
        </g>
    </g>
</svg>