<?xml version="1.0" encoding="UTF-8"?>
<svg width="24px" height="24px" viewBox="0 0 24 24" version="1.1" xmlns="http://www.w3.org/2000/svg" xmlns:xlink="http://www.w3.org/1999/xlink">
    <!-- Generator: Sketch 53.2 (72643) - https://sketchapp.com -->
    <title>ic_blacklisted</title>
    <desc>Created with Sketch.</desc>
    <g id="web-assets" stroke="none" stroke-width="1" fill="none" fill-rule="evenodd">
        <g id="Group-18-Copy" transform="translate(2.000000, 2.000000)">
            <g id="man-user-(1)" transform="translate(4.000000, 2.000000)" fill-rule="nonzero">
                <path d="M6.09375,7.82505143 C7.86339319,7.82505143 9.29810751,6.07337143 9.29810751,3.91254857 C9.29810751,1.75168 8.82706973,0 6.09375,0 C3.36043027,0 2.88930154,1.75168 2.88930154,3.91254857 C2.88930154,6.07337143 4.32401586,7.82505143 6.09375,7.82505143 Z" id="Path" fill="#FFFFFF"></path>
                <path d="M0.0697694107,13.8312871 C0.0685506607,13.6367014 0.0673319107,13.7764628 0.0697694107,13.8312871 L0.0697694107,13.8312871 Z" id="Path" fill="#000000"></path>
                <path d="M12.1733676,13.9018971 C12.177227,13.8658286 12.1746879,13.6516571 12.1733676,13.9018971 L12.1733676,13.9018971 Z" id="Path" fill="#000000"></path>
                <path d="M12.1390683,13.6410057 C12.0797225,9.8768 11.5906763,8.80420571 7.84834072,8.12525714 C7.84834072,8.12525714 7.32154967,8.80004571 6.09370452,8.80004571 C4.86585938,8.80004571 4.33897738,8.12525714 4.33897738,8.12525714 C0.637479011,8.7968 0.118691698,9.85348571 0.0504780784,13.51872 C0.0448845616,13.8180114 0.042292444,13.8337371 0.0412919776,13.7989943 C0.0415193563,13.8640914 0.0417922108,13.9845029 0.0417922108,14.1944686 C0.0417922108,14.1944686 0.932753032,16 6.09370452,16 C11.2545651,16 12.1456168,14.1944686 12.1456168,14.1944686 C12.1456168,14.0595657 12.1457078,13.96576 12.1458442,13.9019429 C12.1448438,13.9234286 12.1428428,13.8817829 12.1390683,13.6410057 Z" id="Path" fill="#FFFFFF"></path>
            </g>
            <circle id="Oval" stroke="#FFFFFF" cx="10" cy="10" r="10"></circle>
            <path d="M10.7781746,0.778174593 L10.7781746,20.7781746" id="Line-3-Copy" stroke="#252037" stroke-width="2" stroke-linecap="square" transform="translate(10.778175, 10.778175) rotate(-315.000000) translate(-10.778175, -10.778175) "></path>
            <path d="M10,0 L10,20" id="Line-3" stroke="#FFFFFF" stroke-linecap="square" transform="translate(10.000000, 10.000000) rotate(-315.000000) translate(-10.000000, -10.000000) "></path>
        </g>
    </g>
</svg>