<?xml version="1.0" encoding="UTF-8"?>
<svg width="24px" height="25px" viewBox="0 0 24 25" version="1.1" xmlns="http://www.w3.org/2000/svg" xmlns:xlink="http://www.w3.org/1999/xlink">
    <!-- Generator: Sketch 53.2 (72643) - https://sketchapp.com -->
    <title>ic_customers_active</title>
    <desc>Created with Sketch.</desc>
    <g id="panel-assets" stroke="none" stroke-width="1" fill="none" fill-rule="evenodd">
        <g id="multiple-users-silhouette-(1)" transform="translate(3.000000, 6.000000)" fill="#FFFFFF" fill-rule="nonzero">
            <path d="M10.7455556,2.62985294 C11.5688889,3.14227941 12.1462222,4.00941176 12.2513333,5.01595588 C12.5871111,5.17169118 12.9597778,5.26125 13.3548889,5.26125 C14.7973333,5.26125 15.9664444,4.10073529 15.9664444,2.66911765 C15.9664444,1.23727941 14.7973333,0.0767647059 13.3548889,0.0767647059 C11.9262222,0.0772058824 10.7673333,1.21698529 10.7455556,2.62985294 Z M9.03466667,7.93764706 C10.4771111,7.93764706 11.6462222,6.77691176 11.6462222,5.34529412 C11.6462222,3.91367647 10.4768889,2.75316176 9.03466667,2.75316176 C7.59244444,2.75316176 6.42266667,3.91389706 6.42266667,5.34551471 C6.42266667,6.77713235 7.59244444,7.93764706 9.03466667,7.93764706 Z M10.1424444,8.11433824 L7.92644444,8.11433824 C6.08266667,8.11433824 4.58266667,9.60352941 4.58266667,11.43375 L4.58266667,14.1238235 L4.58955556,14.1659559 L4.77622222,14.2239706 C6.53577778,14.7697059 8.06444444,14.9516912 9.32266667,14.9516912 C11.7802222,14.9516912 13.2046667,14.2561765 13.2924444,14.2118382 L13.4668889,14.1242647 L13.4855556,14.1242647 L13.4855556,11.43375 C13.4862222,9.60352941 11.9862222,8.11433824 10.1424444,8.11433824 Z M14.4631111,5.43816176 L12.2642222,5.43816176 C12.2404444,6.31147059 11.8648889,7.09786765 11.2708889,7.66345588 C12.9097778,8.14720588 14.1088889,9.65580882 14.1088889,11.4377206 L14.1088889,12.2666912 C16.28,12.1877206 17.5311111,11.5769118 17.6135556,11.5358824 L17.788,11.4480882 L17.8066667,11.4480882 L17.8066667,8.75713235 C17.8066667,6.92713235 16.3066667,5.43816176 14.4631111,5.43816176 Z M4.45222222,5.26169118 C4.96311111,5.26169118 5.43844444,5.11367647 5.84111111,4.86154412 C5.96911111,4.03279412 6.41666667,3.30860294 7.056,2.81536765 C7.05866667,2.76683824 7.06333333,2.71875 7.06333333,2.66977941 C7.06333333,1.23794118 5.894,0.0774264706 4.45222222,0.0774264706 C3.00955556,0.0774264706 1.84066667,1.23794118 1.84066667,2.66977941 C1.84066667,4.10095588 3.00955556,5.26169118 4.45222222,5.26169118 Z M6.79755556,7.66345588 C6.20644444,7.10073529 5.83222222,6.31852941 5.80488889,5.45051471 C5.72333333,5.44455882 5.64266667,5.43816176 5.55955556,5.43816176 L3.34377778,5.43816176 C1.5,5.43816176 0,6.92713235 0,8.75713235 L0,11.4476471 L0.00688888889,11.4891176 L0.193555556,11.5475735 C1.60511111,11.985 2.86488889,12.1866176 3.95911111,12.2501471 L3.95911111,11.4377206 C3.95955556,9.65580882 5.15822222,8.14764706 6.79755556,7.66345588 Z" id="Shape"></path>
        </g>
    </g>
</svg>