<?xml version="1.0" encoding="UTF-8"?>
<svg width="24px" height="24px" viewBox="0 0 24 24" version="1.1" xmlns="http://www.w3.org/2000/svg" xmlns:xlink="http://www.w3.org/1999/xlink">
    <!-- Generator: Sketch 53.2 (72643) - https://sketchapp.com -->
    <title>ic_cart</title>
    <desc>Created with Sketch.</desc>
    <g id="web-assets" stroke="none" stroke-width="1" fill="none" fill-rule="evenodd">
        <g id="cart-copy" transform="translate(2.000000, 2.000000)" fill="#FFFFFF" fill-rule="nonzero">
            <ellipse id="Oval" cx="7.0693578" cy="16.6276253" rx="2.41908257" ry="2.34656674"></ellipse>
            <path d="M14.8198165,14.2582763 L14.8198165,14.2582763 C13.4772936,14.1301265 12.2818807,15.0819063 12.1497706,16.384185 C12.0176606,17.6864637 12.9988532,18.8460422 14.3413761,18.974192 C14.5004587,18.9893653 14.6607339,18.9893653 14.8198165,18.974192 C16.1623394,18.8460422 17.1435321,17.6864637 17.011422,16.384185 C16.8972936,15.2590913 15.979633,14.3689836 14.8198165,14.2582763 Z" id="Path"></path>
            <path d="M19.7988991,5.3276534 C19.6787156,5.15309368 19.4750917,5.05003981 19.2587156,5.05426698 L16.5812844,5.05426698 L16.5812844,5.00870258 C16.5814679,2.25316862 14.2788073,0.0192224824 11.4381193,0.0190444965 C8.59747706,0.0188665105 6.29449541,2.25250117 6.29431193,5.00803513 C6.29431193,5.00825761 6.29431193,5.00848009 6.29431193,5.00870258 L6.29431193,5.05426698 L4.29798165,5.05426698 L3.61688073,2.04701639 C3.54123853,1.74110304 3.26009174,1.52480562 2.93577982,1.52302576 L0,1.52302576 L0,2.88995785 L2.37211009,2.88995785 L4.55633028,12.6179578 C4.61399083,12.9377986 4.90275229,13.1695808 5.23743119,13.1647307 L17.5207339,13.1647307 C17.8450459,13.1629063 18.1261468,12.9466534 18.2018349,12.64074 L19.9398165,5.89720843 C19.9907798,5.69639578 19.9382569,5.48410304 19.7988991,5.3276534 Z M11.4377982,8.6310726 C9.37541284,8.6310726 7.70348624,7.00926464 7.70348624,5.00870258 C7.70348624,3.00814052 9.37541284,1.38633255 11.4377982,1.38633255 C13.5001835,1.38633255 15.1721101,3.00814052 15.1721101,5.00870258 C15.1593119,7.00410304 13.4948624,8.61861358 11.4377982,8.6310726 Z" id="Shape"></path>
            <path d="M10.8741284,5.07704918 L9.58238532,3.8012459 L8.57247706,4.75809836 L10.3574312,6.51232787 C10.4875229,6.6411007 10.6647706,6.71478689 10.8506422,6.71736768 C11.0340826,6.72608899 11.2128899,6.66001171 11.3438532,6.53511007 L14.3031193,3.8240281 L13.3401835,2.82161124 L10.8741284,5.07704918 Z" id="Path"></path>
        </g>
    </g>
</svg>