<?xml version="1.0" encoding="UTF-8"?>
<svg width="24px" height="24px" viewBox="0 0 24 24" version="1.1" xmlns="http://www.w3.org/2000/svg" xmlns:xlink="http://www.w3.org/1999/xlink">
    <!-- Generator: Sketch 53.2 (72643) - https://sketchapp.com -->
    <title>ic_chat</title>
    <desc>Created with Sketch.</desc>
    <g id="web-assets" stroke="none" stroke-width="1" fill="none" fill-rule="evenodd">
        <g id="chat-copy" transform="translate(2.000000, 3.000000)" fill-rule="nonzero">
            <path d="M0.606082641,3.81234498 C0.488753608,7.98927467 0.556368634,11.1309243 0.80892772,13.237294 C0.829676282,13.4103392 1.17202273,13.6878118 1.83596706,14.0697118 L5.62535156,14.4627642 L5.62535156,17.6067904 L8.75027344,14.4627642 L17.2656641,14.4627642 C18.5600391,14.4627642 19.6093359,13.4070524 19.6093359,12.1047642 L19.6093359,2.75124891 C19.6093359,2.45334498 19.5539063,2.16864629 19.4537109,1.90631004 C19.0758644,1.05753503 18.6356791,0.614178231 18.133155,0.576239634 C14.7206249,0.318607029 9.28822895,0.318607029 1.83596706,0.576239635 C0.371904556,0.576200333 0.606082641,2.33933188 0.606082641,3.81234498 Z" id="Path" fill="#FFFFFF"></path>
            <path d="M5.62527344,17.9997642 C5.57496094,17.9997642 5.52421875,17.9899782 5.47589844,17.9698559 C5.32992188,17.9090175 5.23476562,17.7657249 5.23476562,17.6067511 L5.23476562,14.855738 L2.73429688,14.855738 C1.22660156,14.855738 0,13.6216376 0,12.1047249 L0,2.75124891 C0,1.23433624 1.22660156,0.00023580786 2.73429688,0.00023580786 L17.2657031,0.00023580786 C18.7733984,0.00023580786 20,1.23433624 20,2.75124891 L20,12.1047249 C20,13.6216376 18.7733984,14.855738 17.2657031,14.855738 L14.8634375,14.855738 C14.6476953,14.855738 14.4728125,14.6797467 14.4728125,14.4627249 C14.4728125,14.2457031 14.6476953,14.0697118 14.8634375,14.0697118 L17.2657031,14.0697118 C18.3426172,14.0697118 19.2187891,13.1882227 19.2187891,12.1046856 L19.2187891,2.75124891 C19.2187891,1.66775109 18.3426563,0.786222707 17.2657031,0.786222707 L2.73429688,0.786222707 C1.65738281,0.786222707 0.781210938,1.66771179 0.781210938,2.75124891 L0.781210938,12.1047249 C0.781210938,13.1882227 1.65734375,14.0697511 2.73429688,14.0697511 L5.62535156,14.0697511 C5.84109375,14.0697511 6.01597656,14.2457424 6.01597656,14.4627642 L6.01597656,16.6579782 L8.4740625,14.1848646 C8.54730469,14.1111747 8.64667969,14.0697511 8.75027344,14.0697511 L11.8556641,14.0697511 C12.0714063,14.0697511 12.2462891,14.2457424 12.2462891,14.4627642 C12.2462891,14.679786 12.0714063,14.8557773 11.8556641,14.8557773 L8.91207031,14.8557773 L5.9015625,17.88469 C5.82683594,17.9598341 5.72691406,17.9997642 5.62527344,17.9997642 Z" id="Path" fill="#FFFFFF"></path>
            <path d="M13.3595312,14.855738 C13.2567969,14.855738 13.1560156,14.8136856 13.0833594,14.7405459 C13.0107031,14.6674847 12.9689062,14.5660873 12.9689062,14.4627249 C12.9689062,14.3593624 13.0107031,14.2579651 13.0833594,14.1848646 C13.1560156,14.1117642 13.2567969,14.0697118 13.3595312,14.0697118 C13.4622656,14.0697118 13.5630469,14.1117249 13.6357031,14.1848646 C13.7083594,14.2580044 13.7501562,14.3593624 13.7501562,14.4627249 C13.7501562,14.5660873 13.7083594,14.6674847 13.6357031,14.7405459 C13.5630469,14.8136463 13.4622656,14.855738 13.3595312,14.855738 Z" id="Path" fill="#252037"></path>
            <path d="M17.07375,4.20535808 L2.95523437,4.20535808 C2.73949219,4.20535808 2.56460937,4.02936681 2.56460937,3.81234498 C2.56460937,3.59532314 2.73949219,3.41933188 2.95523437,3.41933188 L17.07375,3.41933188 C17.2894922,3.41933188 17.464375,3.59532314 17.464375,3.81234498 C17.464375,4.02936681 17.2894922,4.20535808 17.07375,4.20535808 Z" id="Path" fill="#252037"></path>
            <path d="M17.07375,6.61578603 L2.95523437,6.61578603 C2.73949219,6.61578603 2.56460937,6.43979476 2.56460937,6.22277293 C2.56460937,6.00575109 2.73949219,5.82975983 2.95523437,5.82975983 L17.07375,5.82975983 C17.2894922,5.82975983 17.464375,6.00575109 17.464375,6.22277293 C17.464375,6.43979476 17.2894922,6.61578603 17.07375,6.61578603 Z" id="Path" fill="#252037"></path>
            <path d="M17.07375,9.02621397 L2.95523437,9.02621397 C2.73949219,9.02621397 2.56460937,8.85022271 2.56460937,8.63320087 C2.56460937,8.41617904 2.73949219,8.24018777 2.95523437,8.24018777 L17.07375,8.24018777 C17.2894922,8.24018777 17.464375,8.41617904 17.464375,8.63320087 C17.464375,8.85022271 17.2894922,9.02621397 17.07375,9.02621397 Z" id="Path" fill="#252037"></path>
            <path d="M17.07375,11.4366026 L10.0002734,11.4366026 C9.78453125,11.4366026 9.60964844,11.2606114 9.60964844,11.0435895 C9.60964844,10.8265677 9.78453125,10.6505764 10.0002734,10.6505764 L17.07375,10.6505764 C17.2894922,10.6505764 17.464375,10.8265677 17.464375,11.0435895 C17.464375,11.2606507 17.2894922,11.4366026 17.07375,11.4366026 Z" id="Path" fill="#252037"></path>
            <path d="M8.05882813,11.4366026 L8.04960938,11.4366026 C7.83386719,11.4366026 7.65898438,11.2606114 7.65898438,11.0435895 C7.65898438,10.8265677 7.83386719,10.6505764 8.04960938,10.6505764 L8.05882813,10.6505764 C8.27457031,10.6505764 8.44945313,10.8265677 8.44945313,11.0435895 C8.44945313,11.2606507 8.27457031,11.4366026 8.05882813,11.4366026 Z" id="Path" fill="#252037"></path>
        </g>
    </g>
</svg>