<?xml version="1.0" encoding="UTF-8"?>
<svg width="24px" height="24px" viewBox="0 0 24 24" version="1.1" xmlns="http://www.w3.org/2000/svg" xmlns:xlink="http://www.w3.org/1999/xlink">
    <!-- Generator: Sketch 53.2 (72643) - https://sketchapp.com -->
    <title>ic_discussion</title>
    <desc>Created with Sketch.</desc>
    <g id="web-assets" stroke="none" stroke-width="1" fill="none" fill-rule="evenodd">
        <g id="discussion-copy" transform="translate(2.000000, 2.000000)" fill="#FFFFFF" fill-rule="nonzero">
            <path d="M3.75,5.20833333 L3.75,1.45833333 C3.75,1.24166667 3.775,1.03333333 3.83333333,0.833333333 L1.45833333,0.833333333 C0.658333333,0.833333333 0,1.49166667 0,2.29166667 L0,6.04166667 C0,6.84166667 0.658333333,7.5 1.45833333,7.5 L1.76666667,7.5 L2.83333333,8.91666667 C2.95,9.06666667 3.125,9.15833333 3.30833333,9.16666667 L3.33333333,9.16666667 C3.51666667,9.16666667 3.68333333,9.09166667 3.8,8.95 L5.05,7.525 C4.275,7.04166667 3.75,6.18333333 3.75,5.20833333 L3.75,5.20833333 Z" id="Path"></path>
            <path d="M18.5416667,0.833333333 L16.1666667,0.833333333 C16.225,1.03333333 16.25,1.24166667 16.25,1.45833333 L16.25,5.20833333 C16.25,6.18333333 15.725,7.04166667 14.95,7.525 L16.2,8.95 C16.3166667,9.09166667 16.4833333,9.16666667 16.6666667,9.16666667 L16.6916667,9.16666667 C16.875,9.15833333 17.05,9.06666667 17.1666667,8.91666667 L18.225,7.5 L18.5416667,7.5 C19.3416667,7.5 20,6.84166667 20,6.04166667 L20,2.29166667 C20,1.49166667 19.3416667,0.833333333 18.5416667,0.833333333 Z" id="Path"></path>
            <path d="M10,8.33333333 C9.9925,8.33333333 9.98416667,8.33333333 9.97666667,8.33333333 C9.78833333,8.32583333 9.61333333,8.23416667 9.5,8.08333333 L8.4375,6.66666667 L6.45833333,6.66666667 C5.65416667,6.66666667 5,6.0125 5,5.20833333 L5,1.45833333 C5,0.654166667 5.65416667,0 6.45833333,0 L13.5416667,0 C14.3458333,0 15,0.654166667 15,1.45833333 L15,5.20833333 C15,6.0125 14.3458333,6.66666667 13.5416667,6.66666667 L11.7416667,6.66666667 L10.47,8.12 C10.3516667,8.25583333 10.18,8.33333333 10,8.33333333 Z" id="Path"></path>
            <circle id="Oval" cx="3.33333333" cy="12.5" r="1.66666667"></circle>
            <path d="M5.55833333,15.3333333 C4.71666667,15.9666667 4.16666667,16.9833333 4.16666667,18.125 L4.16666667,18.3333333 L0.625,18.3333333 C0.283333333,18.3333333 0,18.05 0,17.7083333 L0,17.2916667 C0,16.025 1.025,15 2.29166667,15 L4.375,15 C4.80833333,15 5.21666667,15.125 5.55833333,15.3333333 Z" id="Path"></path>
            <circle id="Oval" cx="16.6666667" cy="12.5" r="1.66666667"></circle>
            <path d="M20,17.2916667 L20,17.7083333 C20,18.05 19.7166667,18.3333333 19.375,18.3333333 L15.8333333,18.3333333 L15.8333333,18.125 C15.8333333,16.9833333 15.2833333,15.9666667 14.4416667,15.3333333 C14.7833333,15.125 15.1916667,15 15.625,15 L17.7083333,15 C18.975,15 20,16.025 20,17.2916667 Z" id="Path"></path>
            <circle id="Oval" cx="10" cy="12.0833333" r="2.5"></circle>
            <path d="M12.2916667,15.8333333 L7.70833333,15.8333333 C6.44416667,15.8333333 5.41666667,16.8608333 5.41666667,18.125 L5.41666667,19.375 C5.41666667,19.72 5.69666667,20 6.04166667,20 L13.9583333,20 C14.3033333,20 14.5833333,19.72 14.5833333,19.375 L14.5833333,18.125 C14.5833333,16.8608333 13.5558333,15.8333333 12.2916667,15.8333333 Z" id="Path"></path>
        </g>
    </g>
</svg>