<?xml version="1.0" encoding="UTF-8"?>
<svg width="24px" height="24px" viewBox="0 0 24 24" version="1.1" xmlns="http://www.w3.org/2000/svg" xmlns:xlink="http://www.w3.org/1999/xlink">
    <!-- Generator: Sketch 53.2 (72643) - https://sketchapp.com -->
    <title>ic_dashboard_active</title>
    <desc>Created with Sketch.</desc>
    <g id="panel-assets" stroke="none" stroke-width="1" fill="none" fill-rule="evenodd">
        <g id="ic_dashboard" transform="translate(3.000000, 5.000000)">
            <path d="M17.3400117,5.37661011 C17.3321719,5.35792706 17.3221875,5.34081767 17.3105859,5.32514802 C16.861043,4.30005791 16.2079102,3.37430941 15.3999141,2.59417486 C15.3885234,2.57803645 15.3752695,2.56256769 15.3600117,2.54803643 C15.3447539,2.53350516 15.3285117,2.52088239 15.3115664,2.51003416 C13.6839727,0.981070891 11.4526406,0.0337598684 9,0.0337598684 C7.82514844,0.0337598684 6.70116797,0.25139397 5.66982422,0.64584741 C5.64960938,0.649463484 5.62953516,0.654887596 5.61002344,0.662320637 C5.59044141,0.669787161 5.57244141,0.679296097 5.55598828,0.690345213 C4.47964453,1.11848172 3.50760938,1.74051346 2.68846875,2.51003416 C2.67152344,2.52088239 2.65528125,2.53350516 2.64002344,2.54803643 C2.62476563,2.56256769 2.61147656,2.57803645 2.60012109,2.59417486 C0.994675781,4.14426538 0,6.2693452 0,8.60519527 C0,10.5480651 0.659988281,12.4051871 1.95001172,13.9194852 C2.01002344,14.0051996 2.10002344,14.0337599 2.19002344,14.0337599 L15.8100117,14.0337599 C15.9000117,14.0337599 15.9900117,14.0051996 16.0500234,13.9194852 C17.3400117,12.4052206 18,10.5480651 18,8.60519527 C18,7.48628813 17.7714844,6.41582969 17.3573086,5.43359676 C17.3535117,5.41434451 17.3478164,5.3952262 17.3400117,5.37661011 Z" id="Shape" fill="#FFFFFF"></path>
            <path d="M9,2 L9,2.91174316 M14.8616001,4.82116849 L14.1530426,5.39494705 M16.311705,11.1700148 L15.4233298,10.9649172 M1.68829497,11.1700148 L2.57667021,10.9649172 M3.13839988,4.82116849 L3.8469574,5.39494705" id="Line" stroke="#252037" stroke-linecap="round" stroke-linejoin="round" fill-rule="nonzero"></path>
            <path d="M11.215169,7.06110511 L10.0169434,7.78469498 C9.59256203,8.03419563 9.14322743,8.25875498 8.71887536,8.45837304 C8.59405044,8.50828486 8.44427224,8.58313798 8.29449403,8.6579911 C7.77027033,8.93246227 7.49566721,9.50631668 7.62049213,10.0802003 C7.72033451,10.529319 8.09478001,10.9035846 8.54411462,11.003379 C8.643957,11.0283203 8.74382864,11.0283203 8.84367102,11.0283203 C9.31795891,11.0283203 9.74234024,10.7538491 9.96700754,10.329701 C10.0169434,10.204936 10.0918325,10.0552298 10.1667216,9.90552356 C10.3913889,9.48134615 10.5911029,9.03222744 10.8407235,8.60807927 L11.5646612,7.4104294 C11.614597,7.31063499 11.5896145,7.21081134 11.5147254,7.11101693 C11.4398363,7.01119328 11.3150114,7.01119328 11.215169,7.06110511 L11.215169,7.06110511 Z" id="Shape" fill="#252037"></path>
        </g>
    </g>
</svg>