<?xml version="1.0" encoding="UTF-8"?>
<svg width="40px" height="40px" viewBox="0 0 40 40" version="1.1" xmlns="http://www.w3.org/2000/svg" xmlns:xlink="http://www.w3.org/1999/xlink">
    <!-- Generator: Sketch 53.2 (72643) - https://sketchapp.com -->
    <title>ic_export</title>
    <desc>Created with Sketch.</desc>
    <g id="panel-assets" stroke="none" stroke-width="1" fill="none" fill-rule="evenodd">
        <g id="Group-15">
            <rect id="Rectangle-Copy-4" stroke="#F1E246" x="0.5" y="0.5" width="39" height="39" rx="6"></rect>
            <g id="export" transform="translate(10.000000, 11.000000)" fill="#F1E246" fill-rule="nonzero">
                <path d="M13.75,10.31976 L13.75,15.40008 L2.5,15.40008 L2.5,3.88008 L6.25,3.88008 L6.25,1.32008 L1.25,1.32008 C0.56,1.32008 0,1.89352 0,2.60008 L0,16.68008 C0,17.38792 0.56,17.96008 1.25,17.96008 L15,17.96008 C15.69125,17.96008 16.25,17.38792 16.25,16.68008 L16.25,10.31976 L13.75,10.31976 Z" id="Path"></path>
                <path d="M19.75,4.00808 L14.75,0.16808 C14.5625,0.02216 14.3075,-0.00088 14.09625,0.10792 C13.88375,0.21672 13.75,0.43816 13.75,0.68008 L13.75,2.60008 L11.875,2.60008 C8.08375,2.60008 5,5.75784 5,9.64008 C5,9.93704 5.2,10.1956 5.48125,10.26344 C5.52875,10.27496 5.5775,10.28008 5.625,10.28008 C5.8575,10.28008 6.07625,10.14696 6.18375,9.9268 L6.33125,9.626 C7.29,7.6612 9.2175,6.44008 11.3625,6.44008 L13.75,6.44008 L13.75,8.36008 C13.75,8.602 13.88375,8.82344 14.095,8.93224 C14.30625,9.04104 14.56125,9.018 14.75,8.87208 L19.75,5.03208 C19.9075,4.91176 20,4.72104 20,4.52008 C20,4.31912 19.9075,4.1284 19.75,4.00808 Z" id="Path"></path>
            </g>
        </g>
    </g>
</svg>