<?xml version="1.0" encoding="UTF-8"?>
<svg width="24px" height="24px" viewBox="0 0 24 24" version="1.1" xmlns="http://www.w3.org/2000/svg" xmlns:xlink="http://www.w3.org/1999/xlink">
    <!-- Generator: Sketch 53.2 (72643) - https://sketchapp.com -->
    <title>ic_escorts</title>
    <desc>Created with Sketch.</desc>
    <g id="web-assets" stroke="none" stroke-width="1" fill="none" fill-rule="evenodd">
        <g id="male-and-female-copy" transform="translate(2.000000, 2.000000)" fill="#FFFFFF" fill-rule="nonzero">
            <path d="M6.67608696,13.1955 C7.10130435,13.1955 7.51913043,13.1544773 7.92652174,13.07675 C7.04217391,12.3569091 6.31565217,11.4354091 5.82304348,10.3601818 C5.67217391,10.3260682 5.52304348,10.28375 5.37565217,10.2315 C3.36173913,9.51986364 2.30608696,7.31284091 3.02304348,5.31179545 C3.5726087,3.78013636 5.04086957,2.75068182 6.67652174,2.75068182 C7.11782609,2.75068182 7.55521739,2.82625 7.97652174,2.97522727 C9.99086957,3.68772727 11.0465217,5.89431818 10.3291304,7.89493182 C10.2747826,8.0465 10.2113043,8.19245455 10.14,8.33409091 C10.1413043,8.33754545 10.1426087,8.34143182 10.1443478,8.34531818 C10.5417391,9.25515909 11.3795652,9.87827273 12.3473913,10.0242273 C12.5786957,9.64638636 12.773913,9.24177273 12.9273913,8.81470455 C14.1543478,5.39081818 12.3482609,1.61456818 8.90173913,0.395545455 C8.18304348,0.141636364 7.43391304,0.0125227273 6.67652174,0.0125227273 C3.87695652,0.0125227273 1.36478261,1.77347727 0.425217391,4.39375 C-0.665217391,7.43590909 0.639565217,10.7570227 3.3626087,12.3141591 L2.54913043,14.5833636 L2.2726087,14.0038636 C1.98956522,13.4127045 1.27782609,13.1605227 0.682173913,13.4412045 C0.0865217391,13.7218864 -0.166956522,14.4296364 0.116086957,15.0207955 L1.66782609,18.2654773 C1.87217391,18.6929773 2.3,18.9425682 2.74652174,18.9425682 C2.91826087,18.9425682 3.09217391,18.9058636 3.25782609,18.8277045 L6.36173913,17.3634091 C6.9573913,17.0827273 7.21086957,16.3749773 6.92826087,15.78425 C6.64565217,15.1922273 5.93391304,14.9404773 5.33826087,15.2220227 L4.75521739,15.4970909 L5.61130435,13.1087045 C5.9626087,13.1661364 6.31913043,13.1955 6.67608696,13.1955 Z" id="Path"></path>
            <path d="M19.8556522,13.9006591 C19.5934783,13.2995682 18.8917391,13.0249318 18.2869565,13.2840227 L16.9730435,13.8497045 L16.466087,12.6885455 C17.5808696,11.9514318 18.4447826,10.8999545 18.9482609,9.63775 C19.6004348,8.00115909 19.5721739,6.20997727 18.8669565,4.59497727 C17.8147826,2.18111364 15.4234783,0.62225 12.7752174,0.62225 C12.2673913,0.62225 11.8795652,0.660681818 11.3895652,0.77425 C12.3521739,1.38268182 13.0469565,2.223 13.53,3.44159091 C14.8004348,3.66311364 15.8108696,4.48140909 16.3356522,5.68359091 C16.7469565,6.62754545 16.7634783,7.67384091 16.3830435,8.63075 C16.0017391,9.58722727 15.2691304,10.3394545 14.3178261,10.7479545 C13.826087,10.9586818 13.3091304,11.0657727 12.78,11.0657727 C12.5495652,11.0657727 12.3221739,11.0454773 12.1008696,11.0061818 C10.8330435,10.7829318 9.74304348,9.94434091 9.21956522,8.74388636 C8.82347826,7.83534091 8.79347826,6.83222727 9.13086957,5.90554545 C9.14391304,5.86927273 9.15782609,5.833 9.17217391,5.79629545 C9.24782609,5.60715909 9.34043478,5.42881818 9.44217391,5.25652273 C8.98434783,4.484 8.27608696,3.89975 7.41521739,3.59531818 C7.36434783,3.57761364 7.31217391,3.56940909 7.26130435,3.55429545 C7.00391304,3.93818182 6.7826087,4.34970455 6.60826087,4.78843182 C6.59913043,4.81131818 6.59086957,4.83377273 6.58173913,4.85622727 C5.9573913,6.47511364 5.99478261,8.23865909 6.68913043,9.83163636 C7.47826087,11.6413864 9.02043478,12.9709545 10.8586957,13.5223864 C11.4717391,13.7063409 12.1178261,13.8039318 12.7804348,13.8039318 C13.2869565,13.8039318 13.7856522,13.7408864 14.2743478,13.62775 L14.7821739,14.7906364 L13.4678261,15.35675 C12.8630435,15.6167045 12.5852174,16.3145227 12.8469565,16.9151818 C13.0413043,17.3629773 13.4813043,17.6294091 13.9430435,17.6294091 C14.1013043,17.6294091 14.2617391,17.5983182 14.4165217,17.5313864 L15.73,16.9661364 L16.2156522,18.0780682 C16.41,18.5254318 16.8491304,18.7927273 17.3113043,18.7927273 C17.4691304,18.7927273 17.6304348,18.7612045 17.7847826,18.6947045 C18.39,18.4343182 18.6678261,17.7365 18.406087,17.1362727 L17.9204348,16.0239091 L19.2352174,15.4586591 C19.8404348,15.1991364 20.1182609,14.50175 19.8556522,13.9006591 Z" id="Path"></path>
        </g>
    </g>
</svg>