<?xml version="1.0" encoding="UTF-8"?>
<svg width="24px" height="24px" viewBox="0 0 24 24" version="1.1" xmlns="http://www.w3.org/2000/svg" xmlns:xlink="http://www.w3.org/1999/xlink">
    <!-- Generator: Sketch 53.2 (72643) - https://sketchapp.com -->
    <title>ic_event</title>
    <desc>Created with Sketch.</desc>
    <g id="web-assets" stroke="none" stroke-width="1" fill="none" fill-rule="evenodd">
        <g id="event-date-and-time-symbol-copy" transform="translate(2.000000, 2.000000)" fill="#FFFFFF" fill-rule="nonzero">
            <path d="M15.68,10.1839667 C13.2937255,10.1839667 11.3588235,12.1582 11.3588235,14.5916 C11.3588235,17.0243667 13.2937255,18.9974 15.68,18.9974 C18.065098,18.9974 20,17.0244 20,14.5916 C20,12.1581667 18.065098,10.1839667 15.68,10.1839667 Z M15.9572549,17.8489667 L15.9572549,17.4684667 C15.9572549,17.3110667 15.8328105,17.1838667 15.68,17.1838667 C15.5256863,17.1838667 15.4015359,17.3114 15.4015359,17.4684667 L15.4015359,17.8489667 C13.8544444,17.7133 12.6185948,16.4524333 12.4855556,14.8746667 L12.8597712,14.8746667 C13.0126144,14.8746667 13.1376144,14.7477 13.1376144,14.5918667 C13.1376144,14.4332667 13.0126144,14.3078333 12.8597712,14.3078333 L12.4855556,14.3078333 C12.6185621,12.7294667 13.8547059,11.4698333 15.4015359,11.3335333 L15.4015359,11.7146333 C15.4015359,11.8714333 15.5260131,11.9986667 15.68,11.9986667 C15.8328431,11.9986667 15.9572549,11.8711333 15.9572549,11.7146333 L15.9572549,11.3335333 C17.5049346,11.4698333 18.740817,12.7294667 18.8732353,14.3078333 L18.4990196,14.3078333 C18.3453268,14.3078333 18.2211765,14.4335333 18.2211765,14.5918667 C18.2211765,14.7480667 18.3456209,14.8746667 18.4990196,14.8746667 L18.8732353,14.8746667 C18.7411111,16.4524 17.5049346,17.7129667 15.9572549,17.8489667 Z" id="Shape"></path>
            <path d="M17.2897386,14.1655333 L16.2874183,14.1655333 C16.1537908,13.9689667 15.9318301,13.8384333 15.6799673,13.8384333 C15.6761438,13.8384333 15.6719935,13.8396333 15.667549,13.8396333 L14.7542157,12.5281 C14.6212092,12.3372333 14.3604902,12.2929333 14.1727778,12.428 C13.9856536,12.5643 13.940719,12.8308 14.0746405,13.0222667 L14.9885948,14.3343667 C14.9605229,14.4148667 14.9425163,14.5005 14.9425163,14.5918667 C14.9425163,15.0073333 15.2720915,15.3435 15.6799673,15.3435 C15.9318301,15.3435 16.1549673,15.2141667 16.2874183,15.0169667 L17.2897386,15.0169667 C17.5197059,15.0169667 17.7068301,14.8273667 17.7068301,14.5921667 C17.7068301,14.3558 17.5197386,14.1655333 17.2897386,14.1655333 Z" id="Path"></path>
            <path d="M4.15833333,5.81976667 C4.91444444,5.81976667 5.52630719,5.19506667 5.52630719,4.42473333 L5.52630719,1.39766667 C5.52630719,0.627033333 4.91444444,0.00263333333 4.15833333,0.00263333333 C3.40281046,0.00263333333 2.79124183,0.627033333 2.79124183,1.39766667 L2.79124183,4.42503333 C2.79124183,5.19506667 3.40277778,5.81976667 4.15833333,5.81976667 Z" id="Path"></path>
            <path d="M12.5352288,5.81976667 C13.2913725,5.81976667 13.9032026,5.19506667 13.9032026,4.42473333 L13.9032026,1.39766667 C13.9032026,0.627033333 13.2913399,0.00263333333 12.5352288,0.00263333333 C11.7802941,0.00263333333 11.1681699,0.627033333 11.1681699,1.39766667 L11.1681699,4.42503333 C11.1678431,5.19506667 11.7803268,5.81976667 12.5352288,5.81976667 Z" id="Path"></path>
            <path d="M6.01166667,9.6931 C6.01166667,9.29483333 5.69598039,8.97223333 5.30460784,8.97223333 L3.99398693,8.97223333 C3.60352941,8.97223333 3.28637255,9.29483333 3.28637255,9.6931 L3.28637255,11.0293667 C3.28637255,11.4282333 3.60352941,11.7517667 3.99398693,11.7517667 L5.30460784,11.7517667 C5.69565359,11.7517667 6.01166667,11.4282333 6.01166667,11.0293667 L6.01166667,9.6931 Z" id="Path"></path>
            <path d="M9.71003268,9.694 C9.71003268,9.29573333 9.39346405,8.97343333 9.00388889,8.97343333 L7.69264706,8.97343333 C7.30218954,8.97343333 6.98617647,9.29573333 6.98617647,9.694 L6.98617647,11.0305667 C6.98617647,11.4282333 7.30215686,11.7517667 7.69264706,11.7517667 L9.00388889,11.7517667 C9.39375817,11.7517667 9.71003268,11.4282333 9.71003268,11.0305667 L9.71003268,9.694 Z" id="Path"></path>
            <path d="M11.3904575,8.97223333 C10.9993791,8.97223333 10.6828105,9.29483333 10.6828105,9.6931 L10.6828105,11.0293667 C10.6828105,11.3902333 10.9464706,11.6748667 11.2846405,11.7288333 C11.8030719,10.9051333 12.5373203,10.2382 13.4066667,9.80706667 L13.4066667,9.6931 C13.4066667,9.29483333 13.0906863,8.97223333 12.6996078,8.97223333 L11.3904575,8.97223333 Z" id="Path"></path>
            <path d="M3.99428105,12.5944333 C3.60382353,12.5944333 3.28663399,12.9167333 3.28663399,13.315 L3.28663399,14.6518333 C3.28663399,15.0501 3.60382353,15.3724 3.99428105,15.3724 L5.30552288,15.3724 C5.69598039,15.3724 6.01166667,15.0501 6.01166667,14.6518333 L6.01166667,13.315 C6.01166667,12.9167333 5.69598039,12.5944333 5.30552288,12.5944333 L3.99428105,12.5944333 L3.99428105,12.5944333 Z" id="Path"></path>
            <path d="M9.00238562,12.5950333 L7.69235294,12.5950333 C7.30189542,12.5950333 6.98591503,12.9179667 6.98591503,13.3162333 L6.98591503,14.6518667 C6.98591503,15.0501333 7.30189542,15.3724333 7.69235294,15.3724333 L9.00238562,15.3724333 C9.3922549,15.3724333 9.70885621,15.0501333 9.70885621,14.6518667 L9.70885621,13.3162333 C9.70885621,12.9179333 9.3922549,12.5950333 9.00238562,12.5950333 Z" id="Path"></path>
            <path d="M10.9130392,16.753 L4.26385621,16.753 C3.11934641,16.753 2.18794118,15.803 2.18794118,14.6368 L2.18794118,7.55306667 L14.5068301,7.55306667 L14.5068301,9.40666667 C14.8843137,9.31803333 15.2753922,9.26616667 15.68,9.26616667 C16.0270261,9.26616667 16.3657516,9.30266667 16.6941503,9.3693 L16.6941503,2.7068 L14.7237908,2.7068 L14.7237908,4.42473333 C14.7237908,5.65543333 13.7427124,6.65643333 12.5352288,6.65643333 C11.328366,6.65643333 10.3473203,5.65546667 10.3473203,4.42473333 L10.3473203,2.7068 L6.34683007,2.7068 L6.34683007,4.42473333 C6.34683007,5.65543333 5.3651634,6.65643333 4.15830065,6.65643333 C2.95199346,6.65643333 1.97035948,5.65546667 1.97035948,4.42473333 L1.97035948,2.7068 L0,2.7068 L0,14.6365 C0,17.0376333 1.90888889,18.9856333 4.26385621,18.9856333 L12.4300327,18.9856333 C12.5269935,18.9856333 12.6227451,18.9775 12.7179412,18.9711333 C11.9334314,18.4181667 11.3067647,17.6508333 10.9130392,16.753 Z" id="Path"></path>
        </g>
    </g>
</svg>