<?xml version="1.0" encoding="UTF-8"?>
<svg width="24px" height="24px" viewBox="0 0 24 24" version="1.1" xmlns="http://www.w3.org/2000/svg" xmlns:xlink="http://www.w3.org/1999/xlink">
    <!-- Generator: Sketch 53.2 (72643) - https://sketchapp.com -->
    <title>ic_home</title>
    <desc>Created with Sketch.</desc>
    <g id="web-assets" stroke="none" stroke-width="1" fill="none" fill-rule="evenodd">
        <g id="Group-5-Copy" transform="translate(2.000000, 1.000000)">
            <g id="Group-3">
                <path d="M2.56431096,12 L17.4356883,12 C17.9069458,12 18.2889755,12.3820297 18.2889755,12.8532872 L18.2889755,20.1467128 C18.2889755,20.6179703 17.9069458,21 17.4356883,21 L2.56431096,21 C2.09305346,21 1.71102377,20.6179703 1.71102377,20.1467128 L1.71102377,12.8532872 C1.71102377,12.3820297 2.09305346,12 2.56431096,12 Z M10.5891954,1.22838773 L19.7323383,9.9565474 C20.0732135,10.2819513 20.0857556,10.8220772 19.7603518,11.1629525 C19.5993417,11.3316179 19.376321,11.4270439 19.1431424,11.4270439 L0.856856825,11.4270439 C0.385599317,11.4270439 0.00356962524,11.0450142 0.00356962524,10.5737567 C0.00356962524,10.3405782 0.0989956681,10.1175575 0.267661012,9.9565474 L9.41080382,1.22838773 C9.7405402,0.913617217 10.2594591,0.913617217 10.5891954,1.22838773 Z" id="Combined-Shape" fill="#FFFFFF"></path>
                <path d="M8,17.5 L12,17.5" id="Line-4" stroke="#51496C" stroke-linecap="round" stroke-linejoin="round"></path>
            </g>
        </g>
    </g>
</svg>