<?xml version="1.0" encoding="UTF-8"?>
<svg width="24px" height="24px" viewBox="0 0 24 24" version="1.1" xmlns="http://www.w3.org/2000/svg" xmlns:xlink="http://www.w3.org/1999/xlink">
    <!-- Generator: Sketch 53.2 (72643) - https://sketchapp.com -->
    <title>ic_products_active</title>
    <desc>Created with Sketch.</desc>
    <g id="panel-assets" stroke="none" stroke-width="1" fill="none" fill-rule="evenodd">
        <path d="M4.66666667,3 L9.33333333,3 C10.2538079,3 11,3.74619208 11,4.66666667 L11,9.20833333 C11,10.1288079 10.2538079,10.875 9.33333333,10.875 L4.66666667,10.875 C3.74619208,10.875 3,10.1288079 3,9.20833333 L3,4.66666667 C3,3.74619208 3.74619208,3 4.66666667,3 Z M14.6666667,13.125 L19.3333333,13.125 C20.2538079,13.125 21,13.8711921 21,14.7916667 L21,19.3333333 C21,20.2538079 20.2538079,21 19.3333333,21 L14.6666667,21 C13.7461921,21 13,20.2538079 13,19.3333333 L13,14.7916667 C13,13.8711921 13.7461921,13.125 14.6666667,13.125 Z M13.6666667,3 L19.3333333,3 C20.2538079,3 21,3.74619208 21,4.66666667 L21,9.20833333 C21,10.1288079 20.2538079,10.875 19.3333333,10.875 L13.6666667,10.875 C12.7461921,10.875 12,10.1288079 12,9.20833333 L12,4.66666667 C12,3.74619208 12.7461921,3 13.6666667,3 Z M4.66666667,13.125 L10.3333333,13.125 C11.2538079,13.125 12,13.8711921 12,14.7916667 L12,19.3333333 C12,20.2538079 11.2538079,21 10.3333333,21 L4.66666667,21 C3.74619208,21 3,20.2538079 3,19.3333333 L3,14.7916667 C3,13.8711921 3.74619208,13.125 4.66666667,13.125 Z" id="Combined-Shape" fill="#FFFFFF" fill-rule="nonzero"></path>
    </g>
</svg>