<?xml version="1.0" encoding="UTF-8"?>
<svg width="24px" height="24px" viewBox="0 0 24 24" version="1.1" xmlns="http://www.w3.org/2000/svg" xmlns:xlink="http://www.w3.org/1999/xlink">
    <!-- Generator: Sketch 53.2 (72643) - https://sketchapp.com -->
    <title>ic_rooms</title>
    <desc>Created with Sketch.</desc>
    <g id="web-assets" stroke="none" stroke-width="1" fill="none" fill-rule="evenodd">
        <g id="double-king-size-bed-copy" transform="translate(2.000000, 2.000000)" fill="#FFFFFF" fill-rule="nonzero">
            <path d="M19.9371867,10.6647823 L17.7381586,7.22942587 L17.7381586,0.909930599 L16.8430179,0.0266498423 L3.1342711,0.0266498423 L2.23913043,0.909930599 L2.23913043,7.22937539 L0.0401023018,10.6647823 L19.9371867,10.6647823 Z M15.9478772,1.79321136 L15.9478772,6.20264984 C14.7942711,5.90818927 12.8013811,5.54508517 9.9886445,5.54508517 C7.17590793,5.54508517 5.1830179,5.90818927 4.02941176,6.20264984 L4.02941176,1.79321136 L15.9478772,1.79321136 Z" id="Shape"></path>
            <polygon id="Path" points="0 11.7517224 0 13.5182839 2.0858312 13.5182839 2.0858312 15.9509401 3.87611253 15.9509401 3.87611253 13.5182839 16.1011765 13.5182839 16.1011765 15.9509401 17.8914578 15.9509401 17.8914578 13.5182839 19.9773402 13.5182839 19.9773402 11.7517224"></polygon>
            <path d="M9.26214834,4.62601893 L9.26214834,3.59692114 C9.26214834,2.98609464 8.36373402,2.49075079 7.25549872,2.49075079 C6.14726343,2.49075079 5.24890026,2.98609464 5.24890026,3.59692114 L5.24890026,5.14160252 C5.24890026,5.14160252 6.43253197,4.84754574 7.24608696,4.77153312 C7.97851662,4.70304101 9.26214834,4.62601893 9.26214834,4.62601893 Z" id="Path"></path>
            <path d="M14.7284399,5.14160252 L14.7284399,3.59692114 C14.7284399,2.98609464 13.8300256,2.49075079 12.7217903,2.49075079 C11.613555,2.49075079 10.7151407,2.98609464 10.7151407,3.59692114 L10.7151407,4.62601893 C10.7151407,4.62601893 11.9988235,4.70299054 12.7312532,4.77153312 C13.5448593,4.84754574 14.7284399,5.14160252 14.7284399,5.14160252 Z" id="Path"></path>
        </g>
    </g>
</svg>