<?xml version="1.0" encoding="UTF-8"?>
<svg width="24px" height="24px" viewBox="0 0 24 24" version="1.1" xmlns="http://www.w3.org/2000/svg" xmlns:xlink="http://www.w3.org/1999/xlink">
    <!-- Generator: Sketch 53.2 (72643) - https://sketchapp.com -->
    <title>ic_review</title>
    <desc>Created with Sketch.</desc>
    <g id="web-assets" stroke="none" stroke-width="1" fill="none" fill-rule="evenodd">
        <g id="review-copy" transform="translate(2.000000, 3.000000)" fill-rule="nonzero">
            <path d="M17.1481323,18.9666485 C16.971283,18.9666485 16.8006897,18.8863232 16.6853332,18.7427396 L14.7566223,16.343783 L10.7116699,16.343783 C10.0106812,16.343783 9.44061281,15.7586449 9.44061281,15.0394745 L9.44061281,9.03981242 C9.44061281,8.32048557 10.0106812,7.73550403 10.7116699,7.73550403 L18.7289429,7.73550403 C19.4297791,7.73550403 20,8.32048557 20,9.03981242 L20,15.0394745 C20,15.7588014 19.4297791,16.343783 18.7289429,16.343783 L18.2556152,16.343783 L17.7302551,18.5001978 C17.6753235,18.7256725 17.5013733,18.9002588 17.2805786,18.9514603 C17.2364807,18.961638 17.1920777,18.9666485 17.1481323,18.9666485 L17.1481323,18.9666485 Z" id="Path" fill="#FFFFFF"></path>
            <path d="M4.29321289,16.6661805 C4.249115,16.6661805 4.20486449,16.6611699 4.1607666,16.6509922 C3.93981934,16.5996341 3.76586914,16.4252044 3.71109008,16.1995731 L2.83828734,12.6176572 L1.63574219,12.6176572 C0.733795156,12.6176572 0,11.8648223 0,10.9392801 L0,1.67853376 C0,0.752991485 0.733795156,1.13686838e-13 1.63574219,1.13686838e-13 L14.0106201,1.13686838e-13 C14.9125671,1.13686838e-13 15.6463623,0.752991485 15.6463623,1.67853376 L15.6463623,10.9392801 C15.6463623,11.8648223 14.9125671,12.6176572 14.0106201,12.6176572 L7.83081055,12.6176572 L4.75601195,16.442115 C4.64065551,16.5856985 4.46990969,16.6660239 4.29321289,16.6661805 L4.29321289,16.6661805 Z" id="Path" stroke="#252037" stroke-width="0.833333333" fill="#FFFFFF"></path>
            <path d="M5.90408324,9.80392107 C5.77957152,9.80392107 5.65582273,9.76430643 5.55114746,9.68632979 C5.36636352,9.54853971 5.27389527,9.31507945 5.3125,9.0839679 L5.62576293,7.21017932 L4.29885863,5.88301028 C4.13543703,5.71938457 4.07653809,5.47480715 4.14703367,5.25183774 C4.21768188,5.02886833 4.40551758,4.86633868 4.63150023,4.83267405 L6.46499633,4.55928602 L7.28500367,2.85444688 C7.38616945,2.64416041 7.59475707,2.5110677 7.82318117,2.5110677 C8.05160523,2.5110677 8.26019289,2.64416041 8.36120605,2.85444688 L9.18121336,4.55928602 L11.0147095,4.83267405 C11.2408447,4.86633868 11.4285278,5.02886833 11.499176,5.25183774 C11.5698242,5.47480715 11.5109253,5.71938457 11.3473511,5.88301028 L10.0205994,7.21017932 L10.3337097,9.08412447 C10.3723145,9.31507945 10.2798462,9.54853971 10.0950623,9.68632979 C9.91027832,9.82411988 9.66537477,9.84228308 9.4630432,9.73330365 L7.82302855,8.84847212 L6.18316648,9.73330365 C6.09542848,9.78059072 5.9994507,9.80392107 5.90408324,9.80392107 L5.90408324,9.80392107 Z" id="Path" fill="#252037"></path>
        </g>
    </g>
</svg>