<?xml version="1.0" encoding="UTF-8"?>
<svg width="24px" height="24px" viewBox="0 0 24 24" version="1.1" xmlns="http://www.w3.org/2000/svg" xmlns:xlink="http://www.w3.org/1999/xlink">
    <!-- Generator: Sketch 53.2 (72643) - https://sketchapp.com -->
    <title>ic_trips</title>
    <desc>Created with Sketch.</desc>
    <g id="web-assets" stroke="none" stroke-width="1" fill="none" fill-rule="evenodd">
        <g id="destination-(1)-copy" transform="translate(2.000000, 2.000000)" fill-rule="nonzero">
            <path d="M4.66706055,16.666654 C2.99456715,16.666654 1.6239375,17.2407943 1.6239375,17.9643674 C1.6239375,18.6879434 2.99461131,19.2621189 4.66706055,19.2621189 C6.33950979,19.2621189 7.71018359,18.6879434 7.71018359,17.9643674 C7.71018359,17.2407999 6.33953029,16.666654 4.66706055,16.666654 Z" id="Path" stroke="#FFFFFF" stroke-width="0.5"></path>
            <path d="M4.66713477,5.86516768 C2.09842383,5.86516768 0.008609375,8.0113186 0.008609375,10.6492759 C0.008609375,12.2871189 0.767273438,14.0480945 2.26356055,15.8833079 C3.36518945,17.2344893 4.45089844,18.102782 4.49661719,18.1391006 C4.54678906,18.1790015 4.60698047,18.1989329 4.66713477,18.1989329 C4.72728906,18.1989329 4.78744336,18.1790015 4.83765234,18.1391006 C4.88333398,18.102782 5.96911719,17.2344893 7.07070898,15.8833079 C8.56699609,14.0480945 9.32566016,12.2870808 9.32566016,10.6492759 C9.32566016,8.0113186 7.2358457,5.86516768 4.66713477,5.86516768 Z M6.41405859,10.6492759 C6.41405859,11.6400534 5.63194141,12.4432546 4.66713477,12.4432546 C3.70236523,12.4432546 2.92024805,11.6400534 2.92024805,10.6492759 C2.92024805,9.65849848 3.70236523,8.85525915 4.66713477,8.85525915 C5.63194141,8.85525915 6.41405859,9.65849848 6.41405859,10.6492759 Z" id="Shape" fill="#FFFFFF"></path>
            <path d="M16.9932734,8.64536419 C16.5558229,8.46230084 15.9690712,8.35960366 15.3463594,8.35960366 C14.7236781,8.35960366 14.1369199,8.46230285 13.6994369,8.64536769 C13.2335079,8.84035686 13.0008184,9.09994628 13.0008184,9.36535823 C13.0008184,9.63080139 13.2335054,9.89040403 13.6994345,10.0853478 C14.1368963,10.2684182 14.7236192,10.3711128 15.3463594,10.3711128 C15.9690639,10.3711128 16.5557887,10.2684178 16.9932899,10.0853454 C17.4591487,9.89040475 17.6918262,9.6307961 17.6918262,9.36535823 C17.6918262,9.0999513 17.4591815,8.84039258 16.9932734,8.64536419 Z" id="Path" stroke="#FFFFFF" stroke-width="0.5"></path>
            <g id="Group" transform="translate(1.373047, 8.993902)" fill="#FFFFFF">
                <path d="M3.29401367,9.80358232 C1.89847852,9.80358232 0.426386719,9.3890625 0.0779667969,8.61314787 C0.0278320312,8.72480945 0.000890625,8.84397866 0.000890625,8.97050305 C0.000890625,9.9758003 1.69760547,10.5182546 3.29401367,10.5182546 C4.89042187,10.5182546 6.58713672,9.9757622 6.58713672,8.97050305 C6.58713672,8.84401677 6.56019531,8.72484756 6.51006055,8.61314787 C6.16167773,9.38902439 4.68958594,9.80358232 3.29401367,9.80358232 Z" id="Path"></path>
                <path d="M15.716748,0.607355183 C15.2465723,0.804115854 14.6274023,0.9125 13.9733125,0.9125 C13.3192598,0.9125 12.7000898,0.804115854 12.229877,0.607355183 C11.8592656,0.452286585 11.6015039,0.248056402 11.472623,0.0141006098 C11.4104277,0.127019817 11.3778086,0.246722561 11.3778086,0.371455793 C11.3778086,0.754496951 11.6803984,1.09214939 12.2299141,1.32206555 C12.7000898,1.51882622 13.3192598,1.62721037 13.9733496,1.62721037 C14.6274023,1.62721037 15.2465723,1.51882622 15.7167852,1.32206555 C16.2662266,1.09214939 16.5688164,0.754496951 16.5688164,0.371455793 C16.5688164,0.24679878 16.5361973,0.127019817 16.474002,0.0141006098 C16.3451211,0.248056402 16.0873223,0.452286585 15.716748,0.607355183 Z" id="Path"></path>
            </g>
            <path d="M15.3464336,0 C13.336627,0 11.7015508,1.67919207 11.7015508,3.74314024 C11.7015508,5.01791159 12.2897344,6.38563262 13.4496992,7.80842226 C14.3008027,8.8523247 15.140625,9.52393293 15.1759531,9.55201982 C15.2261621,9.59192073 15.2863164,9.61185213 15.3464707,9.61185213 C15.406625,9.61185213 15.4667422,9.59192073 15.5169883,9.55201982 C15.5523164,9.52393293 16.3921758,8.8523247 17.2432422,7.80842226 C18.403207,6.38567073 18.9913535,5.0179497 18.9913535,3.74314024 C18.9912793,1.67919207 17.3562031,0 15.3464336,0 Z M16.6890879,3.74314024 C16.6890879,4.50464939 16.0879531,5.12198933 15.3464336,5.12198933 C14.6049141,5.12198933 14.0037793,4.50464939 14.0037793,3.74314024 C14.0037793,2.9816311 14.6049141,2.36432927 15.3464336,2.36432927 C16.0879531,2.36432927 16.6890879,2.9816311 16.6890879,3.74314024 Z" id="Shape" fill="#FFFFFF"></path>
            <path d="M8.98885547,18.2508765 C8.83559375,18.2508765 8.71098047,18.1236662 8.71027539,17.9660442 C8.70957031,17.808003 8.83373828,17.6793064 8.98763086,17.6786204 L9.35560742,17.6769055 C9.35605273,17.6769055 9.35646094,17.6769055 9.35690625,17.6769055 C9.51016797,17.6769055 9.63481836,17.8041159 9.63548633,17.9617378 C9.63619141,18.119779 9.51202344,18.2484756 9.35813086,18.2491616 L8.9901543,18.2508765 C8.98970898,18.2508765 8.98926367,18.2508765 8.98885547,18.2508765 Z M10.4607988,18.2440168 C10.3075371,18.2440168 10.1829238,18.1168064 10.1822188,17.9591845 C10.1815137,17.8011433 10.3056816,17.6724466 10.4595742,17.6717607 L10.8275508,17.6700457 C10.8279961,17.6700457 10.8284043,17.6700457 10.8288496,17.6700457 C10.9821113,17.6700457 11.1067246,17.7972561 11.1074297,17.954878 C11.1081348,18.1129192 10.9839668,18.2416159 10.8300742,18.2423018 L10.4620977,18.2440168 C10.4616523,18.2440168 10.461207,18.2440168 10.4607988,18.2440168 Z M11.9327793,18.2371189 C11.7795176,18.2371189 11.6549043,18.1099085 11.6541992,17.9522866 C11.6534941,17.7942835 11.7776621,17.6655488 11.9315547,17.6648628 L12.2994941,17.6631479 C12.2999395,17.6631479 12.3003477,17.6631479 12.300793,17.6631479 C12.4540547,17.6631479 12.578668,17.7903582 12.579373,17.9479802 C12.580041,18.1060213 12.4559102,18.234718 12.3020176,18.235404 L11.9340781,18.2371189 C11.9336328,18.2371189 11.9331875,18.2371189 11.9327793,18.2371189 Z M13.4047598,18.2302591 C13.251498,18.2302591 13.1268848,18.1030488 13.1261797,17.9454268 C13.1254746,17.7874238 13.2496426,17.658689 13.4035352,17.658003 L13.7715117,17.6562881 C13.771957,17.6562881 13.7723652,17.6562881 13.7728105,17.6562881 C13.9260723,17.6562881 14.0506855,17.7834985 14.0513906,17.9411204 C14.0520586,18.0991235 13.9279277,18.2278582 13.7740352,18.2285442 L13.4060586,18.2302591 C13.4056133,18.2302591 13.405168,18.2302591 13.4047598,18.2302591 Z M14.8767031,18.2234375 C14.7234414,18.2234375 14.5988281,18.0962271 14.598123,17.9386052 C14.597418,17.780564 14.7215859,17.6518674 14.8754785,17.6511814 L15.2434551,17.6494665 C15.2439004,17.6494665 15.2443086,17.6494665 15.2447539,17.6494665 C15.3980156,17.6494665 15.5226289,17.7766768 15.523334,17.9342988 C15.5240391,18.0923399 15.3998711,18.2210366 15.2459785,18.2217226 L14.878002,18.2234375 C14.8775566,18.2234375 14.8771484,18.2234375 14.8767031,18.2234375 Z M16.3486836,18.2165777 C16.195459,18.2165777 16.0708457,18.0894055 16.0701035,17.9318216 C16.0693242,17.7738186 16.1934551,17.6450838 16.3473848,17.6443216 L16.3995234,17.6440549 C16.4927422,17.6436357 16.5861465,17.6368521 16.6773984,17.6238948 C16.8295469,17.602096 16.9704141,17.7116235 16.9915293,17.8681784 C17.0125703,18.0246951 16.9061035,18.1691311 16.7536582,18.1907774 C16.6380625,18.2071646 16.5197578,18.2157774 16.402084,18.216311 L16.3500566,18.2165777 C16.3496113,18.2165777 16.3491289,18.2165777 16.3486836,18.2165777 Z M17.7347559,17.7855183 C17.6464727,17.7855183 17.5596367,17.7425305 17.5055313,17.6623857 C17.417916,17.5325076 17.4493105,17.3542683 17.5757793,17.2641768 C17.6645449,17.201029 17.7491172,17.1301829 17.8273066,17.0536966 C17.9386348,16.9446646 18.1150156,16.9490473 18.2212227,17.0634527 C18.3273555,17.1778201 18.323125,17.3589558 18.2117227,17.4679878 C18.112752,17.5648628 18.0056172,17.654497 17.8933242,17.7344512 C17.8448223,17.7689787 17.7895293,17.7855183 17.7347559,17.7855183 Z M18.6158809,16.6056402 C18.5848203,16.6056402 18.5532031,16.6002668 18.522291,16.5889482 C18.3773418,16.5358613 18.3017871,16.3721799 18.3534063,16.2233613 C18.389625,16.1191311 18.4180508,16.0110899 18.4380156,15.9021723 C18.4665156,15.746875 18.6123555,15.6447409 18.7633535,15.673971 C18.9145371,15.7032012 19.0140645,15.8528201 18.9855645,16.0080793 C18.9602188,16.1462271 18.9241484,16.283346 18.878207,16.4155488 C18.8376465,16.532622 18.7303262,16.6056402 18.6158809,16.6056402 Z M18.6609688,15.1193598 C18.5398809,15.1193598 18.4283672,15.0376143 18.3933359,14.9120808 C18.3636113,14.8057546 18.3253887,14.7008765 18.2797441,14.6004573 C18.2146914,14.4572409 18.2749941,14.2869665 18.4144141,14.2201601 C18.5540195,14.1533918 18.7196758,14.215282 18.7847285,14.3584604 C18.8426934,14.4859756 18.8911582,14.619093 18.9289355,14.7541921 C18.9713516,14.9060595 18.8859258,15.0645579 18.7380078,15.1081555 C18.712291,15.1157393 18.6864258,15.1193598 18.6609688,15.1193598 Z M17.8529121,13.8850229 C17.7924238,13.8850229 17.7316016,13.864939 17.6804277,13.8234756 C17.595707,13.7547256 17.5050488,13.692378 17.4111621,13.6380335 C17.2770859,13.5605183 17.229623,13.3859756 17.3051406,13.2483232 C17.3806582,13.1106326 17.5506562,13.0618521 17.6846211,13.1394436 C17.8035938,13.2082698 17.918373,13.2872713 18.0257305,13.3742759 C18.1464844,13.4721799 18.1671172,13.6521341 18.0717461,13.7761433 C18.0167871,13.8477134 17.9352578,13.8850229 17.8529121,13.8850229 Z M16.4966387,13.3664253 C16.4924824,13.3664253 16.4882891,13.3663491 16.4840957,13.3661204 C16.4529609,13.3647104 16.4216035,13.3639863 16.3901348,13.3639863 L16.1284766,13.3639863 C15.974584,13.3639863 15.8498594,13.2359375 15.8498594,13.0778582 C15.8498594,12.9198552 15.9745469,12.7917302 16.1284766,12.7917302 L16.3901348,12.7917302 C16.4294336,12.7917302 16.4693262,12.7926067 16.5087363,12.794436 C16.6624434,12.8014101 16.7815645,12.935061 16.7746992,13.0929116 C16.768168,13.246532 16.6448164,13.3664253 16.4966387,13.3664253 Z M15.0245098,13.3640244 L14.6565332,13.3640244 C14.5026406,13.3640244 14.377916,13.2359756 14.377916,13.0778963 C14.377916,12.9198933 14.5026406,12.7917683 14.6565332,12.7917683 L15.0245098,12.7917683 C15.1784023,12.7917683 15.303127,12.9198933 15.303127,13.0778963 C15.303127,13.2359375 15.1784023,13.3640244 15.0245098,13.3640244 Z M13.5525293,13.3640244 L13.1845527,13.3640244 C13.0306602,13.3640244 12.9059355,13.2359756 12.9059355,13.0778963 C12.9059355,12.9198933 13.0306602,12.7917683 13.1845527,12.7917683 L13.5525293,12.7917683 C13.7064219,12.7917683 13.8311465,12.9198933 13.8311465,13.0778963 C13.8311465,13.2359375 13.7064219,13.3640244 13.5525293,13.3640244 Z M12.0805117,13.3640244 L11.7125352,13.3640244 C11.5586426,13.3640244 11.433918,13.2359756 11.433918,13.0778963 C11.433918,12.9198933 11.5586426,12.7917683 11.7125352,12.7917683 L12.0805117,12.7917683 C12.2344043,12.7917683 12.3591289,12.9198933 12.3591289,13.0778963 C12.3591289,13.2359375 12.2344414,13.3640244 12.0805117,13.3640244 Z M10.6611152,13.0794207 C10.6103125,13.0794207 10.5588789,13.0651677 10.512752,13.0352896 C10.3932969,12.9579268 10.2810781,12.8675686 10.1791016,12.7669207 C10.0682188,12.6573933 10.0647676,12.4762576 10.171457,12.3623857 C10.2780352,12.2485899 10.4544531,12.2449695 10.565373,12.3545351 C10.6401484,12.4283537 10.722457,12.4946265 10.8100352,12.5512957 C10.9402148,12.6355945 10.9791797,12.8123095 10.8970566,12.9459604 C10.8440273,13.0321646 10.7535547,13.0794207 10.6611152,13.0794207 Z M9.85135156,11.8673018 C9.72065234,11.8673018 9.6040918,11.7724848 9.57815234,11.6358994 C9.55262109,11.5012957 9.53966992,11.3630335 9.53966992,11.2248476 L9.53978125,11.2022866 C9.5415625,11.0454268 9.66595312,10.9194741 9.81832422,10.9194741 C9.8194375,10.9194741 9.82055078,10.9194741 9.82162695,10.9195122 C9.97551953,10.9213415 10.0987969,11.0509146 10.0969785,11.2089177 L10.0969043,11.2248095 C10.0969043,11.3263338 10.1064043,11.4278201 10.1251074,11.5264101 C10.1545352,11.6815168 10.0559727,11.8317454 9.9049375,11.8619665 C9.88693945,11.8655869 9.86897852,11.8673018 9.85135156,11.8673018 Z M10.155834,10.4312881 C10.099502,10.4312881 10.0427246,10.4138338 9.99351758,10.3775534 C9.8685332,10.2853659 9.83999609,10.106593 9.92972656,9.97823933 C10.0121836,9.86032774 10.1066641,9.75068598 10.2105332,9.6523247 C10.3237168,9.54519817 10.4999121,9.55255335 10.6042266,9.66863567 C10.7085781,9.78479421 10.7014531,9.96581555 10.5883437,10.0729421 C10.5121582,10.145122 10.4428379,10.2255716 10.3823496,10.3120808 C10.3279102,10.3898628 10.2425215,10.4312881 10.155834,10.4312881 Z M11.382373,9.67412348 C11.2448457,9.67412348 11.1252051,9.5695503 11.1065391,9.42568598 C11.0862402,9.26905488 11.1934492,9.12515244 11.3459688,9.1043064 C11.4370352,9.09188262 11.5301055,9.0855564 11.6227305,9.0855564 L11.7499414,9.0855564 C11.903834,9.0855564 12.0285586,9.21364329 12.0285586,9.37168445 C12.0285586,9.52972561 11.903834,9.6578125 11.7499414,9.6578125 L11.6227305,9.6578125 C11.5545977,9.6578125 11.4862051,9.66242378 11.4194453,9.67153201 C11.4069766,9.67332317 11.3946191,9.67412348 11.382373,9.67412348 Z" id="Shape" fill="#FFFFFF"></path>
        </g>
    </g>
</svg>