<?xml version="1.0" encoding="UTF-8"?>
<svg width="24px" height="24px" viewBox="0 0 24 24" version="1.1" xmlns="http://www.w3.org/2000/svg" xmlns:xlink="http://www.w3.org/1999/xlink">
    <!-- Generator: Sketch 53.2 (72643) - https://sketchapp.com -->
    <title>ic_video_downloads</title>
    <desc>Created with Sketch.</desc>
    <g id="web-assets" stroke="none" stroke-width="1" fill="none" fill-rule="evenodd">
        <path d="M22.9213552,12.0206849 C22.2264481,11.1322978 21.3384044,10.5564764 20.2564809,10.2928635 C20.5979016,9.76581638 20.7681311,9.1791861 20.7681311,8.5331067 C20.7681311,7.63190074 20.4560437,6.86259057 19.8322186,6.22490819 C19.2082623,5.58744913 18.4552568,5.26858561 17.5732022,5.26858561 C16.7826885,5.26858561 16.092153,5.53215385 15.5015082,6.05929032 C15.0107978,4.83502233 14.2262732,3.85315136 13.1488525,3.11363275 C12.0714317,2.37389082 10.8835847,2.00406452 9.58539891,2.00406452 C7.8215082,2.00406452 6.31536612,2.64183623 5.06723497,3.917067 C3.81901639,5.19198511 3.19510383,6.73091811 3.19510383,8.53324069 C3.19510383,8.64374194 3.20345355,8.82655583 3.22006557,9.08150372 C2.23825137,9.54910174 1.45617486,10.2504318 0.87357377,11.1854938 C0.291191257,12.1208238 0,13.140794 0,14.2462084 C0,15.8190422 0.547191257,17.164129 1.64126776,18.2820496 C2.73538798,19.4003275 4.05219672,19.9591315 5.59151913,19.9591315 L19.171235,19.9591315 C20.4940328,19.9591315 21.6235191,19.4807246 22.5597377,18.5244913 C23.4958251,17.5682581 23.9639344,16.4142481 23.9639344,15.0622382 C23.9638033,13.9230571 23.616306,12.90934 22.9213552,12.0206849 Z M15.8511475,12.5116427 L11.4701639,16.9880149 C11.3953661,17.0642581 11.2996284,17.1026253 11.183082,17.1026253 C11.066623,17.1026253 10.9708852,17.0642581 10.896,16.9880149 L6.50273224,12.4990918 C6.42784699,12.42267 6.39046995,12.3248536 6.39046995,12.2057767 C6.39046995,12.0952754 6.42981421,11.999603 6.50885246,11.9188933 C6.58806557,11.838139 6.68148634,11.7978065 6.78963934,11.7978065 L9.58544262,11.7978065 L9.58544262,7.3091067 C9.58544262,7.19860546 9.62500546,7.102933 9.704,7.02204467 C9.78308197,6.94142432 9.87663388,6.90109181 9.98478689,6.90109181 L12.3814208,6.90109181 C12.4897486,6.90109181 12.5829071,6.94129032 12.6623825,7.02204467 C12.7412459,7.102933 12.7807213,7.19860546 12.7807213,7.3091067 L12.7807213,11.7978065 L15.5765246,11.7978065 C15.6930273,11.7978065 15.788765,11.835995 15.8634317,11.9124169 C15.9383607,11.9888387 15.9754317,12.0866551 15.9754317,12.205732 C15.9754317,12.3081935 15.9341639,12.4098065 15.8511475,12.5116427 Z" id="Shape" fill="#F9DDE5" fill-rule="nonzero"></path>
    </g>
</svg>