<?xml version="1.0" encoding="UTF-8"?>
<svg width="24px" height="24px" viewBox="0 0 24 24" version="1.1" xmlns="http://www.w3.org/2000/svg" xmlns:xlink="http://www.w3.org/1999/xlink">
    <!-- Generator: Sketch 53.2 (72643) - https://sketchapp.com -->
    <title>ic_video_like</title>
    <desc>Created with Sketch.</desc>
    <g id="web-assets" stroke="none" stroke-width="1" fill="none" fill-rule="evenodd">
        <g id="Group-2" transform="translate(0.000000, 0.007125)" fill="#F9DDE5" fill-rule="nonzero">
            <path d="M23.1655142,12.7595513 C23.715256,12.1313736 23.9902319,11.3885103 23.9902319,10.5308041 C23.9902319,9.75299544 23.7049628,9.07997039 23.1363676,8.5112574 C22.5666171,7.94259681 21.8919912,7.65842369 21.1123326,7.65842369 L16.9592298,7.65842369 C16.9991422,7.51885194 17.0391597,7.39918907 17.0790722,7.29948747 C17.1186171,7.19978588 17.1741794,7.08997267 17.2438687,6.97030979 C17.3136105,6.85059453 17.3637637,6.76079499 17.3936455,6.70106834 C17.5735142,6.36219818 17.7112123,6.08279271 17.806267,5.86358542 C17.9011641,5.643959 17.9956411,5.34490661 18.0909059,4.96595672 C18.1860131,4.5872164 18.2332779,4.20810934 18.2332779,3.82915945 C18.2332779,3.5899385 18.2303895,3.39530296 18.225663,3.24582916 C18.2209891,3.09625057 18.1955186,2.8718041 18.1509322,2.57259453 C18.105663,2.27354214 18.0455842,2.02420957 17.9708009,1.82485877 C17.8957024,1.62545558 17.7756499,1.40090433 17.6110109,1.15178132 C17.4460044,0.902186788 17.2461794,0.700530752 17.0110635,0.545870159 C16.776,0.391314351 16.4762363,0.261697039 16.1114048,0.157070615 C15.7462057,0.0523394077 15.3341094,3.55271368e-15 14.8740131,3.55271368e-15 C14.6141619,3.55271368e-15 14.3894442,0.0947767654 14.1993348,0.284277904 C13.9994573,0.483681093 13.8292516,0.732961276 13.689453,1.03201367 C13.5494442,1.33122323 13.4519212,1.59051025 13.396884,1.8099795 C13.3418993,2.02934396 13.2793523,2.33358314 13.209663,2.72238269 C13.1193873,3.1414123 13.0522188,3.44287472 13.0069497,3.62734624 C12.9620481,3.81181777 12.8743457,4.05360592 12.7445252,4.35271071 C12.614442,4.65202506 12.4596761,4.89119362 12.2797024,5.07079271 C11.9498993,5.39981321 11.4451641,5.99817995 10.7652867,6.86568337 C10.2753611,7.50381549 9.77062582,8.10710706 9.2508709,8.67555809 C8.73101094,9.2441139 8.35121225,9.53824146 8.1113698,9.55820273 C7.86165427,9.57811162 7.6467046,9.68032802 7.46673085,9.86490433 C7.28675711,10.0493759 7.1967965,10.2663303 7.1967965,10.5155581 L7.1967965,20.1037813 C7.1967965,20.3630683 7.29169365,20.5848428 7.48164551,20.7693144 C7.67149234,20.9539954 7.89642013,21.0511822 8.15632385,21.0611891 C8.50613567,21.0711959 9.29582495,21.2903508 10.5253917,21.7195444 C11.2949672,21.9784123 11.8971204,22.1756674 12.3319562,22.3101048 C12.7666871,22.4445421 13.3743545,22.5892483 14.1534354,22.7440137 C14.9332516,22.8985171 15.6528315,22.9760046 16.3123851,22.9760046 L16.5673523,22.9760046 L17.7069584,22.9760046 L18.2466171,22.9760046 C19.5763851,22.9560957 20.5605427,22.5670342 21.2005077,21.809344 C21.7800788,21.1211777 22.0248578,20.2186765 21.9352123,19.1017882 C22.3249891,18.7328451 22.595081,18.2643576 22.7448053,17.6958018 C22.9144858,17.0878474 22.9144858,16.5044123 22.7448053,15.9460729 C23.2045339,15.3377517 23.4194836,14.6546674 23.3892867,13.8967677 C23.390547,13.5773349 23.3157637,13.1984897 23.1655142,12.7595513 Z" id="Path"></path>
            <path d="M5.27789934,9.57344875 L0.959789934,9.57344875 C0.699728665,9.57344875 0.474800875,9.66822551 0.284901532,9.85772665 C0.0950021882,10.047123 1.86517468e-14,10.2715171 1.86517468e-14,10.5308041 L1.86517468e-14,20.1044624 C1.86517468e-14,20.3633827 0.0950021882,20.5878815 0.284954048,20.7775399 C0.475010941,20.9667267 0.699938731,21.0615558 0.959842451,21.0615558 L5.27789934,21.0615558 C5.53775055,21.0615558 5.7625733,20.9667267 5.95257768,20.7775399 C6.14247702,20.5878815 6.2374267,20.3634351 6.2374267,20.1044624 L6.2374267,10.5308041 C6.2374267,10.2715171 6.14242451,10.0471754 5.95257768,9.85772665 C5.76262582,9.66817312 5.53780306,9.57344875 5.27789934,9.57344875 Z M3.55352298,18.8700592 C3.36362363,19.0545308 3.13874836,19.1467403 2.87884464,19.1467403 C2.60891028,19.1467403 2.38146171,19.0545308 2.19665646,18.8700592 C2.01174617,18.6855877 1.91931729,18.4587836 1.91931729,18.1894897 C1.91931729,17.9302551 2.01169365,17.7058087 2.19665646,17.5164123 C2.38151422,17.3269112 2.60891028,17.2320296 2.87884464,17.2320296 C3.13874836,17.2320296 3.36362363,17.3269112 3.55352298,17.5164123 C3.74347484,17.7057563 3.83847702,17.9302027 3.83847702,18.1894897 C3.83847702,18.4587836 3.7436849,18.6855353 3.55352298,18.8700592 Z" id="Shape"></path>
        </g>
    </g>
</svg>