<?xml version="1.0" encoding="UTF-8"?>
<svg width="24px" height="24px" viewBox="0 0 24 24" version="1.1" xmlns="http://www.w3.org/2000/svg" xmlns:xlink="http://www.w3.org/1999/xlink">
    <!-- Generator: Sketch 53.2 (72643) - https://sketchapp.com -->
    <title>ic_video_comments</title>
    <desc>Created with Sketch.</desc>
    <g id="web-assets" stroke="none" stroke-width="1" fill="none" fill-rule="evenodd">
        <g id="ic_video_comments" transform="translate(1.000000, 2.000000)" fill-rule="nonzero">
            <path d="M18.8629456,20.9631379 C18.6684113,20.9631379 18.4807587,20.8743572 18.3538666,20.7156596 L16.2322845,18.0641812 L11.7828369,18.0641812 C11.0117493,18.0641812 10.3846741,17.4174496 10.3846741,16.6225771 L10.3846741,9.99137163 C10.3846741,9.19632616 11.0117493,8.54976761 11.7828369,8.54976761 L20.6018372,8.54976761 C21.372757,8.54976761 22,9.19632616 22,9.99137163 L22,16.6225771 C22,17.4176226 21.372757,18.0641812 20.6018372,18.0641812 L20.0811768,18.0641812 L19.5032806,20.447587 C19.4428558,20.6967959 19.2515106,20.8897597 19.0086365,20.9463508 C18.9601288,20.9575999 18.9112854,20.9631379 18.8629456,20.9631379 L18.8629456,20.9631379 Z" id="Path" fill="#F9DDE5"></path>
            <path d="M4.72253418,18.4205152 C4.6740265,18.4205152 4.62535094,18.4149773 4.57684326,18.4037283 C4.33380127,18.346964 4.14245605,18.1541733 4.08219909,17.9047913 L3.12211608,13.9458317 L1.79931641,13.9458317 C0.807174672,13.9458317 0,13.113751 0,12.0907832 L0,1.85522152 C0,0.832253747 0.807174672,0 1.79931641,0 L15.4116821,0 C16.4038239,0 17.2109985,0.832253747 17.2109985,1.85522152 L17.2109985,12.0907832 C17.2109985,13.113751 16.4038239,13.9458317 15.4116821,13.9458317 L8.6138916,13.9458317 L5.23161315,18.1728639 C5.10472106,18.3315615 4.91690066,18.4203422 4.72253418,18.4205152 L4.72253418,18.4205152 Z" id="Path" stroke="#252037" stroke-width="0.916666667" fill="#F9DDE5"></path>
            <path d="M6.49449157,10.8359128 C6.35752868,10.8359128 6.22140501,10.7921282 6.10626221,10.7059435 C5.90299987,10.5536492 5.8012848,10.2956141 5.84375,10.0401751 L6.18833922,7.96914557 L4.7287445,6.50227453 C4.54898073,6.32142505 4.48419189,6.05110264 4.56173704,5.80466277 C4.63945006,5.55822289 4.84606934,5.37858486 5.09465026,5.34137658 L7.11149596,5.03921086 L8.01350404,3.15491497 C8.1247864,2.92249309 8.35423278,2.77539061 8.60549929,2.77539061 C8.85676576,2.77539061 9.08621218,2.92249309 9.19732666,3.15491497 L10.0993347,5.03921086 L12.1161804,5.34137658 C12.3649292,5.37858486 12.5713806,5.55822289 12.6490936,5.80466277 C12.7268066,6.05110264 12.6620178,6.32142505 12.4820862,6.50227453 L11.0226593,7.96914557 L11.3670807,10.0403481 C11.4095459,10.2956141 11.3078308,10.5536492 11.1045685,10.7059435 C10.9013062,10.8582378 10.6319122,10.8783129 10.4093475,10.7578619 L8.60533141,9.77989024 L6.80148313,10.7578619 C6.70497132,10.8101266 6.59939577,10.8359128 6.49449157,10.8359128 L6.49449157,10.8359128 Z" id="Path" fill="#252037"></path>
        </g>
    </g>
</svg>